<svg xmlns="http://www.w3.org/2000/svg" xmlns:xlink="http://www.w3.org/1999/xlink" width="500" zoomAndPan="magnify" viewBox="0 0 375 374.999991" height="500" preserveAspectRatio="xMidYMid meet" version="1.0"><defs><g/><clipPath id="d091638277"><path d="M 101.871094 75.195312 L 273.128906 75.195312 L 273.128906 246.457031 L 101.871094 246.457031 Z M 101.871094 75.195312 " clip-rule="nonzero"/></clipPath><clipPath id="76e86be090"><path d="M 187.5 75.195312 C 140.207031 75.195312 101.871094 113.535156 101.871094 160.828125 C 101.871094 208.117188 140.207031 246.457031 187.5 246.457031 C 234.792969 246.457031 273.128906 208.117188 273.128906 160.828125 C 273.128906 113.535156 234.792969 75.195312 187.5 75.195312 Z M 187.5 75.195312 " clip-rule="nonzero"/></clipPath><clipPath id="05c53e33d2"><path d="M 0.871094 0.195312 L 172.128906 0.195312 L 172.128906 171.457031 L 0.871094 171.457031 Z M 0.871094 0.195312 " clip-rule="nonzero"/></clipPath><clipPath id="36f590c425"><path d="M 86.5 0.195312 C 39.207031 0.195312 0.871094 38.535156 0.871094 85.828125 C 0.871094 133.117188 39.207031 171.457031 86.5 171.457031 C 133.792969 171.457031 172.128906 133.117188 172.128906 85.828125 C 172.128906 38.535156 133.792969 0.195312 86.5 0.195312 Z M 86.5 0.195312 " clip-rule="nonzero"/></clipPath><clipPath id="6db1f401cb"><rect x="0" width="173" y="0" height="172"/></clipPath><clipPath id="87a03fe5f3"><path d="M 170 105.3125 L 205 105.3125 L 205 131 L 170 131 Z M 170 105.3125 " clip-rule="nonzero"/></clipPath></defs><g clip-path="url(#d091638277)"><g clip-path="url(#76e86be090)"><g transform="matrix(1, 0, 0, 1, 101, 75)"><g clip-path="url(#6db1f401cb)"><g clip-path="url(#05c53e33d2)"><g clip-path="url(#36f590c425)"><path fill="#ffa500" d="M 0.871094 0.195312 L 172.128906 0.195312 L 172.128906 171.457031 L 0.871094 171.457031 Z M 0.871094 0.195312 " fill-opacity="1" fill-rule="nonzero"/></g></g></g></g></g></g><path fill="#fafafa" d="M 230.746094 208.050781 L 223.410156 140.6875 C 223.015625 137.054688 219.945312 134.296875 216.292969 134.296875 L 158.703125 134.296875 C 155.050781 134.296875 151.984375 137.054688 151.585938 140.6875 L 144.25 208.050781 C 143.792969 212.289062 147.109375 215.988281 151.367188 215.988281 L 223.628906 215.988281 C 227.890625 215.988281 231.203125 212.289062 230.746094 208.050781 Z M 190.132812 163.636719 L 203.503906 163.636719 L 203.503906 167.546875 L 190.132812 167.546875 Z M 178.460938 160.925781 C 181.035156 160.925781 183.128906 163.015625 183.128906 165.59375 C 183.128906 168.175781 181.035156 170.265625 178.460938 170.265625 C 175.875 170.265625 173.785156 168.175781 173.785156 165.59375 C 173.785156 163.015625 175.875 160.925781 178.460938 160.925781 Z M 187.492188 190.308594 C 179.265625 190.308594 171.4375 187.199219 165.449219 181.550781 L 169.285156 177.484375 C 174.234375 182.152344 180.699219 184.714844 187.492188 184.714844 C 194.296875 184.714844 200.765625 182.152344 205.710938 177.484375 L 209.546875 181.550781 C 203.558594 187.199219 195.726562 190.308594 187.492188 190.308594 Z M 187.492188 190.308594 " fill-opacity="1" fill-rule="nonzero"/><g clip-path="url(#87a03fe5f3)"><path fill="#fafafa" d="M 187.5 105.597656 C 177.871094 105.597656 170.039062 113.429688 170.039062 123.054688 L 170.039062 130.054688 L 176.144531 130.054688 L 176.144531 123.054688 C 176.144531 116.800781 181.238281 111.707031 187.5 111.707031 C 193.761719 111.707031 198.851562 116.800781 198.851562 123.054688 L 198.851562 130.054688 L 204.957031 130.054688 L 204.957031 123.054688 C 204.957031 113.429688 197.125 105.597656 187.5 105.597656 Z M 187.5 105.597656 " fill-opacity="1" fill-rule="nonzero"/></g><g fill="#38b6ff" fill-opacity="0.4"><g transform="translate(97.961955, 279.149043)"><g><path d="M 6.328125 -23.546875 L 14.46875 -23.546875 C 16.238281 -23.546875 17.859375 -23.269531 19.328125 -22.71875 C 20.796875 -22.175781 22.0625 -21.414062 23.125 -20.4375 C 24.1875 -19.457031 25.015625 -18.304688 25.609375 -16.984375 C 26.210938 -15.660156 26.515625 -14.238281 26.515625 -12.71875 C 26.515625 -10.925781 26.164062 -9.253906 25.46875 -7.703125 C 24.769531 -6.148438 23.804688 -4.800781 22.578125 -3.65625 C 21.359375 -2.519531 19.914062 -1.625 18.25 -0.96875 C 16.582031 -0.320312 14.769531 0 12.8125 0 L 2.1875 0 Z M 13.25 -5.71875 C 14.257812 -5.71875 15.171875 -5.878906 15.984375 -6.203125 C 16.804688 -6.523438 17.507812 -6.976562 18.09375 -7.5625 C 18.675781 -8.144531 19.128906 -8.859375 19.453125 -9.703125 C 19.785156 -10.546875 19.953125 -11.492188 19.953125 -12.546875 C 19.953125 -13.285156 19.820312 -13.972656 19.5625 -14.609375 C 19.300781 -15.253906 18.90625 -15.816406 18.375 -16.296875 C 17.851562 -16.773438 17.210938 -17.148438 16.453125 -17.421875 C 15.691406 -17.691406 14.804688 -17.828125 13.796875 -17.828125 L 11.53125 -17.828125 L 9.421875 -5.71875 Z M 13.25 -5.71875 "/></g></g></g><g fill="#38b6ff" fill-opacity="0.4"><g transform="translate(123.53182, 279.149043)"><g><path d="M 11.46875 0.5 C 10.101562 0.5 8.859375 0.273438 7.734375 -0.171875 C 6.617188 -0.617188 5.660156 -1.226562 4.859375 -2 C 4.066406 -2.769531 3.453125 -3.664062 3.015625 -4.6875 C 2.578125 -5.707031 2.359375 -6.800781 2.359375 -7.96875 C 2.359375 -9.34375 2.632812 -10.640625 3.1875 -11.859375 C 3.75 -13.078125 4.503906 -14.140625 5.453125 -15.046875 C 6.410156 -15.960938 7.523438 -16.679688 8.796875 -17.203125 C 10.066406 -17.734375 11.40625 -18 12.8125 -18 C 14.1875 -18 15.429688 -17.773438 16.546875 -17.328125 C 17.671875 -16.878906 18.628906 -16.265625 19.421875 -15.484375 C 20.222656 -14.710938 20.84375 -13.816406 21.28125 -12.796875 C 21.71875 -11.773438 21.9375 -10.679688 21.9375 -9.515625 C 21.9375 -8.148438 21.65625 -6.851562 21.09375 -5.625 C 20.53125 -4.40625 19.769531 -3.34375 18.8125 -2.4375 C 17.863281 -1.53125 16.753906 -0.8125 15.484375 -0.28125 C 14.222656 0.238281 12.882812 0.5 11.46875 0.5 Z M 11.78125 -4.375 C 12.3125 -4.375 12.832031 -4.488281 13.34375 -4.71875 C 13.863281 -4.957031 14.328125 -5.296875 14.734375 -5.734375 C 15.140625 -6.171875 15.460938 -6.703125 15.703125 -7.328125 C 15.953125 -7.960938 16.078125 -8.671875 16.078125 -9.453125 C 16.078125 -10.578125 15.742188 -11.46875 15.078125 -12.125 C 14.421875 -12.789062 13.566406 -13.125 12.515625 -13.125 C 11.972656 -13.125 11.441406 -13.003906 10.921875 -12.765625 C 10.410156 -12.523438 9.953125 -12.1875 9.546875 -11.75 C 9.148438 -11.3125 8.828125 -10.78125 8.578125 -10.15625 C 8.328125 -9.53125 8.203125 -8.828125 8.203125 -8.046875 C 8.203125 -6.921875 8.53125 -6.023438 9.1875 -5.359375 C 9.851562 -4.703125 10.71875 -4.375 11.78125 -4.375 Z M 11.78125 -4.375 "/></g></g></g><g fill="#38b6ff" fill-opacity="0.4"><g transform="translate(144.72789, 279.149043)"><g><path d="M 4.78125 -17.5 L 10.328125 -17.5 L 9.859375 -14.96875 L 10.1875 -14.96875 C 10.476562 -15.507812 10.835938 -15.984375 11.265625 -16.390625 C 11.648438 -16.742188 12.128906 -17.070312 12.703125 -17.375 C 13.273438 -17.675781 13.972656 -17.828125 14.796875 -17.828125 L 16.75 -17.828125 L 15.78125 -12.28125 L 12.921875 -12.28125 C 11.910156 -12.28125 11.046875 -11.96875 10.328125 -11.34375 C 9.609375 -10.726562 9.160156 -9.921875 8.984375 -8.921875 L 7.40625 0 L 1.6875 0 Z M 4.78125 -17.5 "/></g></g></g><g fill="#38b6ff" fill-opacity="0.4"><g transform="translate(159.026825, 279.149043)"><g><path d="M 4.78125 -17.5 L 10.5 -17.5 L 10.125 -15.3125 L 10.390625 -15.3125 C 10.753906 -15.800781 11.179688 -16.25 11.671875 -16.65625 C 12.097656 -16.988281 12.613281 -17.296875 13.21875 -17.578125 C 13.820312 -17.859375 14.539062 -18 15.375 -18 C 16.40625 -18 17.238281 -17.847656 17.875 -17.546875 C 18.519531 -17.242188 19.03125 -16.910156 19.40625 -16.546875 C 19.832031 -16.148438 20.148438 -15.679688 20.359375 -15.140625 L 20.65625 -15.140625 C 21.125 -15.679688 21.648438 -16.148438 22.234375 -16.546875 C 22.753906 -16.910156 23.367188 -17.242188 24.078125 -17.546875 C 24.796875 -17.847656 25.628906 -18 26.578125 -18 C 27.722656 -18 28.703125 -17.804688 29.515625 -17.421875 C 30.335938 -17.046875 30.992188 -16.507812 31.484375 -15.8125 C 31.984375 -15.113281 32.304688 -14.28125 32.453125 -13.3125 C 32.597656 -12.351562 32.566406 -11.300781 32.359375 -10.15625 L 30.609375 0 L 24.890625 0 L 26.640625 -9.859375 C 26.816406 -10.929688 26.71875 -11.78125 26.34375 -12.40625 C 25.976562 -13.039062 25.269531 -13.359375 24.21875 -13.359375 C 23.363281 -13.359375 22.617188 -13.050781 21.984375 -12.4375 C 21.347656 -11.832031 20.9375 -10.984375 20.75 -9.890625 L 19 0 L 13.28125 0 L 15.03125 -9.859375 C 15.21875 -10.929688 15.125 -11.78125 14.75 -12.40625 C 14.382812 -13.039062 13.671875 -13.359375 12.609375 -13.359375 C 11.765625 -13.359375 11.019531 -13.050781 10.375 -12.4375 C 9.738281 -11.832031 9.332031 -10.984375 9.15625 -9.890625 L 7.40625 0 L 1.6875 0 Z M 4.78125 -17.5 "/></g></g></g><g fill="#ffa500" fill-opacity="1"><g transform="translate(97.961955, 279.149043)"><g><path d="M 6.328125 -23.546875 L 14.46875 -23.546875 C 16.238281 -23.546875 17.859375 -23.269531 19.328125 -22.71875 C 20.796875 -22.175781 22.0625 -21.414062 23.125 -20.4375 C 24.1875 -19.457031 25.015625 -18.304688 25.609375 -16.984375 C 26.210938 -15.660156 26.515625 -14.238281 26.515625 -12.71875 C 26.515625 -10.925781 26.164062 -9.253906 25.46875 -7.703125 C 24.769531 -6.148438 23.804688 -4.800781 22.578125 -3.65625 C 21.359375 -2.519531 19.914062 -1.625 18.25 -0.96875 C 16.582031 -0.320312 14.769531 0 12.8125 0 L 2.1875 0 Z M 13.25 -5.71875 C 14.257812 -5.71875 15.171875 -5.878906 15.984375 -6.203125 C 16.804688 -6.523438 17.507812 -6.976562 18.09375 -7.5625 C 18.675781 -8.144531 19.128906 -8.859375 19.453125 -9.703125 C 19.785156 -10.546875 19.953125 -11.492188 19.953125 -12.546875 C 19.953125 -13.285156 19.820312 -13.972656 19.5625 -14.609375 C 19.300781 -15.253906 18.90625 -15.816406 18.375 -16.296875 C 17.851562 -16.773438 17.210938 -17.148438 16.453125 -17.421875 C 15.691406 -17.691406 14.804688 -17.828125 13.796875 -17.828125 L 11.53125 -17.828125 L 9.421875 -5.71875 Z M 13.25 -5.71875 "/></g></g></g><g fill="#ffa500" fill-opacity="1"><g transform="translate(123.53182, 279.149043)"><g><path d="M 11.46875 0.5 C 10.101562 0.5 8.859375 0.273438 7.734375 -0.171875 C 6.617188 -0.617188 5.660156 -1.226562 4.859375 -2 C 4.066406 -2.769531 3.453125 -3.664062 3.015625 -4.6875 C 2.578125 -5.707031 2.359375 -6.800781 2.359375 -7.96875 C 2.359375 -9.34375 2.632812 -10.640625 3.1875 -11.859375 C 3.75 -13.078125 4.503906 -14.140625 5.453125 -15.046875 C 6.410156 -15.960938 7.523438 -16.679688 8.796875 -17.203125 C 10.066406 -17.734375 11.40625 -18 12.8125 -18 C 14.1875 -18 15.429688 -17.773438 16.546875 -17.328125 C 17.671875 -16.878906 18.628906 -16.265625 19.421875 -15.484375 C 20.222656 -14.710938 20.84375 -13.816406 21.28125 -12.796875 C 21.71875 -11.773438 21.9375 -10.679688 21.9375 -9.515625 C 21.9375 -8.148438 21.65625 -6.851562 21.09375 -5.625 C 20.53125 -4.40625 19.769531 -3.34375 18.8125 -2.4375 C 17.863281 -1.53125 16.753906 -0.8125 15.484375 -0.28125 C 14.222656 0.238281 12.882812 0.5 11.46875 0.5 Z M 11.78125 -4.375 C 12.3125 -4.375 12.832031 -4.488281 13.34375 -4.71875 C 13.863281 -4.957031 14.328125 -5.296875 14.734375 -5.734375 C 15.140625 -6.171875 15.460938 -6.703125 15.703125 -7.328125 C 15.953125 -7.960938 16.078125 -8.671875 16.078125 -9.453125 C 16.078125 -10.578125 15.742188 -11.46875 15.078125 -12.125 C 14.421875 -12.789062 13.566406 -13.125 12.515625 -13.125 C 11.972656 -13.125 11.441406 -13.003906 10.921875 -12.765625 C 10.410156 -12.523438 9.953125 -12.1875 9.546875 -11.75 C 9.148438 -11.3125 8.828125 -10.78125 8.578125 -10.15625 C 8.328125 -9.53125 8.203125 -8.828125 8.203125 -8.046875 C 8.203125 -6.921875 8.53125 -6.023438 9.1875 -5.359375 C 9.851562 -4.703125 10.71875 -4.375 11.78125 -4.375 Z M 11.78125 -4.375 "/></g></g></g><g fill="#ffa500" fill-opacity="1"><g transform="translate(144.72789, 279.149043)"><g><path d="M 4.78125 -17.5 L 10.328125 -17.5 L 9.859375 -14.96875 L 10.1875 -14.96875 C 10.476562 -15.507812 10.835938 -15.984375 11.265625 -16.390625 C 11.648438 -16.742188 12.128906 -17.070312 12.703125 -17.375 C 13.273438 -17.675781 13.972656 -17.828125 14.796875 -17.828125 L 16.75 -17.828125 L 15.78125 -12.28125 L 12.921875 -12.28125 C 11.910156 -12.28125 11.046875 -11.96875 10.328125 -11.34375 C 9.609375 -10.726562 9.160156 -9.921875 8.984375 -8.921875 L 7.40625 0 L 1.6875 0 Z M 4.78125 -17.5 "/></g></g></g><g fill="#ffa500" fill-opacity="1"><g transform="translate(159.026825, 279.149043)"><g><path d="M 4.78125 -17.5 L 10.5 -17.5 L 10.125 -15.3125 L 10.390625 -15.3125 C 10.753906 -15.800781 11.179688 -16.25 11.671875 -16.65625 C 12.097656 -16.988281 12.613281 -17.296875 13.21875 -17.578125 C 13.820312 -17.859375 14.539062 -18 15.375 -18 C 16.40625 -18 17.238281 -17.847656 17.875 -17.546875 C 18.519531 -17.242188 19.03125 -16.910156 19.40625 -16.546875 C 19.832031 -16.148438 20.148438 -15.679688 20.359375 -15.140625 L 20.65625 -15.140625 C 21.125 -15.679688 21.648438 -16.148438 22.234375 -16.546875 C 22.753906 -16.910156 23.367188 -17.242188 24.078125 -17.546875 C 24.796875 -17.847656 25.628906 -18 26.578125 -18 C 27.722656 -18 28.703125 -17.804688 29.515625 -17.421875 C 30.335938 -17.046875 30.992188 -16.507812 31.484375 -15.8125 C 31.984375 -15.113281 32.304688 -14.28125 32.453125 -13.3125 C 32.597656 -12.351562 32.566406 -11.300781 32.359375 -10.15625 L 30.609375 0 L 24.890625 0 L 26.640625 -9.859375 C 26.816406 -10.929688 26.71875 -11.78125 26.34375 -12.40625 C 25.976562 -13.039062 25.269531 -13.359375 24.21875 -13.359375 C 23.363281 -13.359375 22.617188 -13.050781 21.984375 -12.4375 C 21.347656 -11.832031 20.9375 -10.984375 20.75 -9.890625 L 19 0 L 13.28125 0 L 15.03125 -9.859375 C 15.21875 -10.929688 15.125 -11.78125 14.75 -12.40625 C 14.382812 -13.039062 13.671875 -13.359375 12.609375 -13.359375 C 11.765625 -13.359375 11.019531 -13.050781 10.375 -12.4375 C 9.738281 -11.832031 9.332031 -10.984375 9.15625 -9.890625 L 7.40625 0 L 1.6875 0 Z M 4.78125 -17.5 "/></g></g></g><g fill="#000000" fill-opacity="1"><g transform="translate(85.227683, 298.067325)"><g><path d="M 2.78125 -2.578125 L 0.046875 -7.0625 L 1.109375 -7.0625 L 3.171875 -3.640625 L 3.28125 -3.640625 L 5.34375 -7.0625 L 6.40625 -7.0625 L 3.6875 -2.578125 L 3.6875 0 L 2.78125 0 Z M 2.78125 -2.578125 "/></g></g></g><g fill="#000000" fill-opacity="1"><g transform="translate(94.201361, 298.067325)"><g><path d="M 4.140625 0.203125 C 3.609375 0.203125 3.113281 0.109375 2.65625 -0.078125 C 2.207031 -0.265625 1.820312 -0.523438 1.5 -0.859375 C 1.175781 -1.191406 0.921875 -1.582031 0.734375 -2.03125 C 0.546875 -2.488281 0.453125 -2.988281 0.453125 -3.53125 C 0.453125 -4.070312 0.546875 -4.570312 0.734375 -5.03125 C 0.921875 -5.488281 1.175781 -5.882812 1.5 -6.21875 C 1.820312 -6.550781 2.207031 -6.804688 2.65625 -6.984375 C 3.113281 -7.171875 3.609375 -7.265625 4.140625 -7.265625 C 4.671875 -7.265625 5.160156 -7.171875 5.609375 -6.984375 C 6.054688 -6.804688 6.441406 -6.550781 6.765625 -6.21875 C 7.097656 -5.882812 7.359375 -5.488281 7.546875 -5.03125 C 7.734375 -4.570312 7.828125 -4.070312 7.828125 -3.53125 C 7.828125 -2.988281 7.734375 -2.488281 7.546875 -2.03125 C 7.359375 -1.582031 7.097656 -1.191406 6.765625 -0.859375 C 6.441406 -0.523438 6.054688 -0.265625 5.609375 -0.078125 C 5.160156 0.109375 4.671875 0.203125 4.140625 0.203125 Z M 4.140625 -0.65625 C 4.546875 -0.65625 4.914062 -0.722656 5.25 -0.859375 C 5.59375 -0.992188 5.882812 -1.1875 6.125 -1.4375 C 6.375 -1.695312 6.566406 -2.003906 6.703125 -2.359375 C 6.847656 -2.710938 6.921875 -3.101562 6.921875 -3.53125 C 6.921875 -3.957031 6.847656 -4.347656 6.703125 -4.703125 C 6.566406 -5.054688 6.375 -5.359375 6.125 -5.609375 C 5.882812 -5.867188 5.59375 -6.066406 5.25 -6.203125 C 4.914062 -6.335938 4.546875 -6.40625 4.140625 -6.40625 C 3.734375 -6.40625 3.359375 -6.335938 3.015625 -6.203125 C 2.679688 -6.066406 2.390625 -5.867188 2.140625 -5.609375 C 1.898438 -5.359375 1.707031 -5.054688 1.5625 -4.703125 C 1.425781 -4.347656 1.359375 -3.957031 1.359375 -3.53125 C 1.359375 -3.101562 1.425781 -2.710938 1.5625 -2.359375 C 1.707031 -2.003906 1.898438 -1.695312 2.140625 -1.4375 C 2.390625 -1.1875 2.679688 -0.992188 3.015625 -0.859375 C 3.359375 -0.722656 3.734375 -0.65625 4.140625 -0.65625 Z M 4.140625 -0.65625 "/></g></g></g><g fill="#000000" fill-opacity="1"><g transform="translate(104.989099, 298.067325)"><g><path d="M 3.53125 0.203125 C 3.113281 0.203125 2.734375 0.132812 2.390625 0 C 2.054688 -0.132812 1.765625 -0.328125 1.515625 -0.578125 C 1.273438 -0.828125 1.085938 -1.128906 0.953125 -1.484375 C 0.816406 -1.835938 0.75 -2.234375 0.75 -2.671875 L 0.75 -7.0625 L 1.671875 -7.0625 L 1.671875 -2.671875 C 1.671875 -2.359375 1.710938 -2.078125 1.796875 -1.828125 C 1.890625 -1.578125 2.019531 -1.363281 2.1875 -1.1875 C 2.351562 -1.007812 2.550781 -0.875 2.78125 -0.78125 C 3.007812 -0.695312 3.257812 -0.65625 3.53125 -0.65625 C 3.8125 -0.65625 4.066406 -0.695312 4.296875 -0.78125 C 4.523438 -0.875 4.71875 -1.007812 4.875 -1.1875 C 5.039062 -1.363281 5.171875 -1.578125 5.265625 -1.828125 C 5.359375 -2.078125 5.40625 -2.359375 5.40625 -2.671875 L 5.40625 -7.0625 L 6.3125 -7.0625 L 6.3125 -2.671875 C 6.3125 -2.234375 6.242188 -1.835938 6.109375 -1.484375 C 5.972656 -1.128906 5.78125 -0.828125 5.53125 -0.578125 C 5.289062 -0.328125 5 -0.132812 4.65625 0 C 4.320312 0.132812 3.945312 0.203125 3.53125 0.203125 Z M 3.53125 0.203125 "/></g></g></g><g fill="#000000" fill-opacity="1"><g transform="translate(114.56746, 298.067325)"><g><path d="M 0.8125 -7.0625 L 3.828125 -7.0625 C 4.234375 -7.0625 4.597656 -7.003906 4.921875 -6.890625 C 5.242188 -6.773438 5.515625 -6.617188 5.734375 -6.421875 C 5.953125 -6.222656 6.117188 -5.988281 6.234375 -5.71875 C 6.347656 -5.445312 6.40625 -5.15625 6.40625 -4.84375 C 6.40625 -4.320312 6.242188 -3.867188 5.921875 -3.484375 C 5.597656 -3.109375 5.140625 -2.851562 4.546875 -2.71875 L 6.359375 0 L 5.296875 0 L 3.578125 -2.625 L 1.71875 -2.625 L 1.71875 0 L 0.8125 0 Z M 3.828125 -3.484375 C 4.390625 -3.484375 4.804688 -3.609375 5.078125 -3.859375 C 5.359375 -4.109375 5.5 -4.4375 5.5 -4.84375 C 5.5 -5.25 5.359375 -5.578125 5.078125 -5.828125 C 4.804688 -6.078125 4.390625 -6.203125 3.828125 -6.203125 L 1.71875 -6.203125 L 1.71875 -3.484375 Z M 3.828125 -3.484375 "/></g></g></g><g fill="#000000" fill-opacity="1"><g transform="translate(123.994656, 298.067325)"><g/></g></g><g fill="#000000" fill-opacity="1"><g transform="translate(129.340203, 298.067325)"><g><path d="M 4.140625 0.203125 C 3.609375 0.203125 3.113281 0.109375 2.65625 -0.078125 C 2.207031 -0.265625 1.820312 -0.523438 1.5 -0.859375 C 1.175781 -1.191406 0.921875 -1.582031 0.734375 -2.03125 C 0.546875 -2.488281 0.453125 -2.988281 0.453125 -3.53125 C 0.453125 -4.070312 0.546875 -4.570312 0.734375 -5.03125 C 0.921875 -5.488281 1.175781 -5.882812 1.5 -6.21875 C 1.820312 -6.550781 2.207031 -6.804688 2.65625 -6.984375 C 3.113281 -7.171875 3.609375 -7.265625 4.140625 -7.265625 C 4.492188 -7.265625 4.816406 -7.226562 5.109375 -7.15625 C 5.398438 -7.082031 5.660156 -6.984375 5.890625 -6.859375 C 6.117188 -6.742188 6.320312 -6.609375 6.5 -6.453125 C 6.675781 -6.296875 6.828125 -6.132812 6.953125 -5.96875 C 7.253906 -5.59375 7.476562 -5.164062 7.625 -4.6875 L 6.71875 -4.6875 C 6.582031 -5.007812 6.398438 -5.296875 6.171875 -5.546875 C 6.078125 -5.660156 5.960938 -5.765625 5.828125 -5.859375 C 5.703125 -5.960938 5.554688 -6.054688 5.390625 -6.140625 C 5.222656 -6.222656 5.035156 -6.285156 4.828125 -6.328125 C 4.617188 -6.378906 4.390625 -6.40625 4.140625 -6.40625 C 3.734375 -6.40625 3.359375 -6.335938 3.015625 -6.203125 C 2.679688 -6.066406 2.390625 -5.867188 2.140625 -5.609375 C 1.898438 -5.359375 1.707031 -5.054688 1.5625 -4.703125 C 1.425781 -4.347656 1.359375 -3.957031 1.359375 -3.53125 C 1.359375 -3.101562 1.425781 -2.710938 1.5625 -2.359375 C 1.707031 -2.003906 1.898438 -1.695312 2.140625 -1.4375 C 2.390625 -1.1875 2.679688 -0.992188 3.015625 -0.859375 C 3.359375 -0.722656 3.734375 -0.65625 4.140625 -0.65625 C 4.390625 -0.65625 4.625 -0.679688 4.84375 -0.734375 C 5.0625 -0.785156 5.253906 -0.851562 5.421875 -0.9375 C 5.597656 -1.03125 5.75 -1.128906 5.875 -1.234375 C 6.007812 -1.347656 6.128906 -1.460938 6.234375 -1.578125 C 6.460938 -1.847656 6.640625 -2.160156 6.765625 -2.515625 L 7.671875 -2.515625 C 7.503906 -2.003906 7.269531 -1.550781 6.96875 -1.15625 C 6.832031 -0.976562 6.675781 -0.804688 6.5 -0.640625 C 6.320312 -0.484375 6.113281 -0.34375 5.875 -0.21875 C 5.644531 -0.09375 5.382812 0.00390625 5.09375 0.078125 C 4.800781 0.160156 4.484375 0.203125 4.140625 0.203125 Z M 4.140625 0.203125 "/></g></g></g><g fill="#000000" fill-opacity="1"><g transform="translate(139.926387, 298.067325)"><g><path d="M 2.015625 -7.0625 L 4.796875 -7.0625 L 6.609375 0 L 5.703125 0 L 5.140625 -2.0625 L 1.671875 -2.0625 L 1.109375 0 L 0.203125 0 Z M 4.953125 -2.921875 L 4.09375 -6.203125 L 2.71875 -6.203125 L 1.875 -2.921875 Z M 4.953125 -2.921875 "/></g></g></g><g fill="#000000" fill-opacity="1"><g transform="translate(149.252795, 298.067325)"><g><path d="M 0.8125 -7.0625 L 2.265625 -7.0625 L 4.390625 -2.515625 L 4.84375 -2.515625 L 6.96875 -7.0625 L 8.421875 -7.0625 L 8.421875 0 L 7.515625 0 L 7.515625 -6.0625 L 7.53125 -6.15625 L 7.515625 -6.15625 L 5.453125 -1.71875 L 3.78125 -1.71875 L 1.71875 -6.15625 L 1.703125 -6.15625 L 1.71875 -6.0625 L 1.71875 0 L 0.8125 0 Z M 0.8125 -7.0625 "/></g></g></g><g fill="#000000" fill-opacity="1"><g transform="translate(160.997957, 298.067325)"><g><path d="M 0.8125 -7.0625 L 3.78125 -7.0625 C 4.1875 -7.0625 4.550781 -7.003906 4.875 -6.890625 C 5.195312 -6.773438 5.472656 -6.613281 5.703125 -6.40625 C 5.929688 -6.195312 6.101562 -5.945312 6.21875 -5.65625 C 6.34375 -5.375 6.40625 -5.070312 6.40625 -4.75 C 6.40625 -4.414062 6.34375 -4.109375 6.21875 -3.828125 C 6.101562 -3.546875 5.929688 -3.300781 5.703125 -3.09375 C 5.472656 -2.882812 5.195312 -2.71875 4.875 -2.59375 C 4.550781 -2.476562 4.1875 -2.421875 3.78125 -2.421875 L 1.71875 -2.421875 L 1.71875 0 L 0.8125 0 Z M 3.78125 -3.28125 C 4.34375 -3.28125 4.769531 -3.414062 5.0625 -3.6875 C 5.351562 -3.957031 5.5 -4.3125 5.5 -4.75 C 5.5 -5.175781 5.351562 -5.523438 5.0625 -5.796875 C 4.769531 -6.066406 4.34375 -6.203125 3.78125 -6.203125 L 1.71875 -6.203125 L 1.71875 -3.28125 Z M 3.78125 -3.28125 "/></g></g></g><g fill="#000000" fill-opacity="1"><g transform="translate(170.273977, 298.067325)"><g><path d="M 3.53125 0.203125 C 3.113281 0.203125 2.734375 0.132812 2.390625 0 C 2.054688 -0.132812 1.765625 -0.328125 1.515625 -0.578125 C 1.273438 -0.828125 1.085938 -1.128906 0.953125 -1.484375 C 0.816406 -1.835938 0.75 -2.234375 0.75 -2.671875 L 0.75 -7.0625 L 1.671875 -7.0625 L 1.671875 -2.671875 C 1.671875 -2.359375 1.710938 -2.078125 1.796875 -1.828125 C 1.890625 -1.578125 2.019531 -1.363281 2.1875 -1.1875 C 2.351562 -1.007812 2.550781 -0.875 2.78125 -0.78125 C 3.007812 -0.695312 3.257812 -0.65625 3.53125 -0.65625 C 3.8125 -0.65625 4.066406 -0.695312 4.296875 -0.78125 C 4.523438 -0.875 4.71875 -1.007812 4.875 -1.1875 C 5.039062 -1.363281 5.171875 -1.578125 5.265625 -1.828125 C 5.359375 -2.078125 5.40625 -2.359375 5.40625 -2.671875 L 5.40625 -7.0625 L 6.3125 -7.0625 L 6.3125 -2.671875 C 6.3125 -2.234375 6.242188 -1.835938 6.109375 -1.484375 C 5.972656 -1.128906 5.78125 -0.828125 5.53125 -0.578125 C 5.289062 -0.328125 5 -0.132812 4.65625 0 C 4.320312 0.132812 3.945312 0.203125 3.53125 0.203125 Z M 3.53125 0.203125 "/></g></g></g><g fill="#000000" fill-opacity="1"><g transform="translate(179.852338, 298.067325)"><g><path d="M 3.328125 0.203125 C 3.003906 0.203125 2.710938 0.171875 2.453125 0.109375 C 2.203125 0.046875 1.976562 -0.0351562 1.78125 -0.140625 C 1.59375 -0.242188 1.421875 -0.363281 1.265625 -0.5 C 1.117188 -0.632812 0.992188 -0.769531 0.890625 -0.90625 C 0.648438 -1.226562 0.488281 -1.597656 0.40625 -2.015625 L 1.3125 -2.015625 C 1.375 -1.765625 1.492188 -1.535156 1.671875 -1.328125 C 1.816406 -1.148438 2.019531 -0.992188 2.28125 -0.859375 C 2.550781 -0.722656 2.898438 -0.65625 3.328125 -0.65625 C 3.628906 -0.65625 3.890625 -0.6875 4.109375 -0.75 C 4.335938 -0.8125 4.523438 -0.898438 4.671875 -1.015625 C 4.816406 -1.128906 4.921875 -1.257812 4.984375 -1.40625 C 5.054688 -1.550781 5.09375 -1.707031 5.09375 -1.875 C 5.09375 -2.082031 5.03125 -2.253906 4.90625 -2.390625 C 4.78125 -2.535156 4.613281 -2.660156 4.40625 -2.765625 C 4.195312 -2.867188 3.960938 -2.957031 3.703125 -3.03125 C 3.441406 -3.101562 3.175781 -3.175781 2.90625 -3.25 C 2.632812 -3.332031 2.363281 -3.421875 2.09375 -3.515625 C 1.832031 -3.617188 1.597656 -3.742188 1.390625 -3.890625 C 1.179688 -4.046875 1.015625 -4.234375 0.890625 -4.453125 C 0.765625 -4.671875 0.703125 -4.9375 0.703125 -5.25 C 0.703125 -5.507812 0.757812 -5.757812 0.875 -6 C 1 -6.25 1.164062 -6.46875 1.375 -6.65625 C 1.59375 -6.84375 1.859375 -6.988281 2.171875 -7.09375 C 2.484375 -7.207031 2.835938 -7.265625 3.234375 -7.265625 C 3.523438 -7.265625 3.789062 -7.234375 4.03125 -7.171875 C 4.269531 -7.117188 4.476562 -7.046875 4.65625 -6.953125 C 4.84375 -6.867188 5.003906 -6.765625 5.140625 -6.640625 C 5.273438 -6.515625 5.390625 -6.394531 5.484375 -6.28125 C 5.710938 -5.988281 5.867188 -5.660156 5.953125 -5.296875 L 5.046875 -5.296875 C 4.984375 -5.503906 4.875 -5.691406 4.71875 -5.859375 C 4.582031 -5.992188 4.394531 -6.117188 4.15625 -6.234375 C 3.925781 -6.347656 3.617188 -6.40625 3.234375 -6.40625 C 2.972656 -6.40625 2.738281 -6.375 2.53125 -6.3125 C 2.332031 -6.25 2.160156 -6.160156 2.015625 -6.046875 C 1.878906 -5.941406 1.773438 -5.816406 1.703125 -5.671875 C 1.640625 -5.535156 1.609375 -5.394531 1.609375 -5.25 C 1.609375 -4.96875 1.71875 -4.75 1.9375 -4.59375 C 2.15625 -4.4375 2.425781 -4.300781 2.75 -4.1875 C 3.070312 -4.082031 3.421875 -3.976562 3.796875 -3.875 C 4.179688 -3.78125 4.535156 -3.65625 4.859375 -3.5 C 5.191406 -3.34375 5.460938 -3.132812 5.671875 -2.875 C 5.890625 -2.625 6 -2.289062 6 -1.875 C 6 -1.59375 5.941406 -1.328125 5.828125 -1.078125 C 5.710938 -0.828125 5.539062 -0.601562 5.3125 -0.40625 C 5.082031 -0.21875 4.800781 -0.0703125 4.46875 0.03125 C 4.144531 0.144531 3.765625 0.203125 3.328125 0.203125 Z M 3.328125 0.203125 "/></g></g></g><g fill="#000000" fill-opacity="1"><g transform="translate(188.826016, 298.067325)"><g><path d="M 1.0625 0.15625 C 0.882812 0.15625 0.738281 0.0976562 0.625 -0.015625 C 0.507812 -0.128906 0.453125 -0.273438 0.453125 -0.453125 C 0.453125 -0.628906 0.507812 -0.773438 0.625 -0.890625 C 0.738281 -1.003906 0.882812 -1.0625 1.0625 -1.0625 C 1.238281 -1.0625 1.382812 -1.003906 1.5 -0.890625 C 1.613281 -0.773438 1.671875 -0.628906 1.671875 -0.453125 C 1.671875 -0.273438 1.613281 -0.128906 1.5 -0.015625 C 1.382812 0.0976562 1.238281 0.15625 1.0625 0.15625 Z M 1.0625 0.15625 "/></g></g></g><g fill="#000000" fill-opacity="1"><g transform="translate(193.466102, 298.067325)"><g/></g></g><g fill="#000000" fill-opacity="1"><g transform="translate(198.811649, 298.067325)"><g><path d="M 2.78125 -2.578125 L 0.046875 -7.0625 L 1.109375 -7.0625 L 3.171875 -3.640625 L 3.28125 -3.640625 L 5.34375 -7.0625 L 6.40625 -7.0625 L 3.6875 -2.578125 L 3.6875 0 L 2.78125 0 Z M 2.78125 -2.578125 "/></g></g></g><g fill="#000000" fill-opacity="1"><g transform="translate(207.785327, 298.067325)"><g><path d="M 4.140625 0.203125 C 3.609375 0.203125 3.113281 0.109375 2.65625 -0.078125 C 2.207031 -0.265625 1.820312 -0.523438 1.5 -0.859375 C 1.175781 -1.191406 0.921875 -1.582031 0.734375 -2.03125 C 0.546875 -2.488281 0.453125 -2.988281 0.453125 -3.53125 C 0.453125 -4.070312 0.546875 -4.570312 0.734375 -5.03125 C 0.921875 -5.488281 1.175781 -5.882812 1.5 -6.21875 C 1.820312 -6.550781 2.207031 -6.804688 2.65625 -6.984375 C 3.113281 -7.171875 3.609375 -7.265625 4.140625 -7.265625 C 4.671875 -7.265625 5.160156 -7.171875 5.609375 -6.984375 C 6.054688 -6.804688 6.441406 -6.550781 6.765625 -6.21875 C 7.097656 -5.882812 7.359375 -5.488281 7.546875 -5.03125 C 7.734375 -4.570312 7.828125 -4.070312 7.828125 -3.53125 C 7.828125 -2.988281 7.734375 -2.488281 7.546875 -2.03125 C 7.359375 -1.582031 7.097656 -1.191406 6.765625 -0.859375 C 6.441406 -0.523438 6.054688 -0.265625 5.609375 -0.078125 C 5.160156 0.109375 4.671875 0.203125 4.140625 0.203125 Z M 4.140625 -0.65625 C 4.546875 -0.65625 4.914062 -0.722656 5.25 -0.859375 C 5.59375 -0.992188 5.882812 -1.1875 6.125 -1.4375 C 6.375 -1.695312 6.566406 -2.003906 6.703125 -2.359375 C 6.847656 -2.710938 6.921875 -3.101562 6.921875 -3.53125 C 6.921875 -3.957031 6.847656 -4.347656 6.703125 -4.703125 C 6.566406 -5.054688 6.375 -5.359375 6.125 -5.609375 C 5.882812 -5.867188 5.59375 -6.066406 5.25 -6.203125 C 4.914062 -6.335938 4.546875 -6.40625 4.140625 -6.40625 C 3.734375 -6.40625 3.359375 -6.335938 3.015625 -6.203125 C 2.679688 -6.066406 2.390625 -5.867188 2.140625 -5.609375 C 1.898438 -5.359375 1.707031 -5.054688 1.5625 -4.703125 C 1.425781 -4.347656 1.359375 -3.957031 1.359375 -3.53125 C 1.359375 -3.101562 1.425781 -2.710938 1.5625 -2.359375 C 1.707031 -2.003906 1.898438 -1.695312 2.140625 -1.4375 C 2.390625 -1.1875 2.679688 -0.992188 3.015625 -0.859375 C 3.359375 -0.722656 3.734375 -0.65625 4.140625 -0.65625 Z M 4.140625 -0.65625 "/></g></g></g><g fill="#000000" fill-opacity="1"><g transform="translate(218.573065, 298.067325)"><g><path d="M 3.53125 0.203125 C 3.113281 0.203125 2.734375 0.132812 2.390625 0 C 2.054688 -0.132812 1.765625 -0.328125 1.515625 -0.578125 C 1.273438 -0.828125 1.085938 -1.128906 0.953125 -1.484375 C 0.816406 -1.835938 0.75 -2.234375 0.75 -2.671875 L 0.75 -7.0625 L 1.671875 -7.0625 L 1.671875 -2.671875 C 1.671875 -2.359375 1.710938 -2.078125 1.796875 -1.828125 C 1.890625 -1.578125 2.019531 -1.363281 2.1875 -1.1875 C 2.351562 -1.007812 2.550781 -0.875 2.78125 -0.78125 C 3.007812 -0.695312 3.257812 -0.65625 3.53125 -0.65625 C 3.8125 -0.65625 4.066406 -0.695312 4.296875 -0.78125 C 4.523438 -0.875 4.71875 -1.007812 4.875 -1.1875 C 5.039062 -1.363281 5.171875 -1.578125 5.265625 -1.828125 C 5.359375 -2.078125 5.40625 -2.359375 5.40625 -2.671875 L 5.40625 -7.0625 L 6.3125 -7.0625 L 6.3125 -2.671875 C 6.3125 -2.234375 6.242188 -1.835938 6.109375 -1.484375 C 5.972656 -1.128906 5.78125 -0.828125 5.53125 -0.578125 C 5.289062 -0.328125 5 -0.132812 4.65625 0 C 4.320312 0.132812 3.945312 0.203125 3.53125 0.203125 Z M 3.53125 0.203125 "/></g></g></g><g fill="#000000" fill-opacity="1"><g transform="translate(228.151426, 298.067325)"><g><path d="M 0.8125 -7.0625 L 3.828125 -7.0625 C 4.234375 -7.0625 4.597656 -7.003906 4.921875 -6.890625 C 5.242188 -6.773438 5.515625 -6.617188 5.734375 -6.421875 C 5.953125 -6.222656 6.117188 -5.988281 6.234375 -5.71875 C 6.347656 -5.445312 6.40625 -5.15625 6.40625 -4.84375 C 6.40625 -4.320312 6.242188 -3.867188 5.921875 -3.484375 C 5.597656 -3.109375 5.140625 -2.851562 4.546875 -2.71875 L 6.359375 0 L 5.296875 0 L 3.578125 -2.625 L 1.71875 -2.625 L 1.71875 0 L 0.8125 0 Z M 3.828125 -3.484375 C 4.390625 -3.484375 4.804688 -3.609375 5.078125 -3.859375 C 5.359375 -4.109375 5.5 -4.4375 5.5 -4.84375 C 5.5 -5.25 5.359375 -5.578125 5.078125 -5.828125 C 4.804688 -6.078125 4.390625 -6.203125 3.828125 -6.203125 L 1.71875 -6.203125 L 1.71875 -3.484375 Z M 3.828125 -3.484375 "/></g></g></g><g fill="#000000" fill-opacity="1"><g transform="translate(237.578622, 298.067325)"><g/></g></g><g fill="#000000" fill-opacity="1"><g transform="translate(242.924168, 298.067325)"><g><path d="M 0.8125 -7.0625 L 3.125 -7.0625 C 3.65625 -7.0625 4.144531 -6.96875 4.59375 -6.78125 C 5.050781 -6.601562 5.441406 -6.359375 5.765625 -6.046875 C 6.097656 -5.734375 6.351562 -5.359375 6.53125 -4.921875 C 6.71875 -4.492188 6.8125 -4.03125 6.8125 -3.53125 C 6.8125 -3.03125 6.71875 -2.566406 6.53125 -2.140625 C 6.351562 -1.710938 6.097656 -1.335938 5.765625 -1.015625 C 5.441406 -0.703125 5.050781 -0.453125 4.59375 -0.265625 C 4.144531 -0.0859375 3.65625 0 3.125 0 L 0.8125 0 Z M 3.125 -0.859375 C 3.539062 -0.859375 3.921875 -0.921875 4.265625 -1.046875 C 4.609375 -1.179688 4.898438 -1.367188 5.140625 -1.609375 C 5.378906 -1.847656 5.566406 -2.128906 5.703125 -2.453125 C 5.835938 -2.785156 5.90625 -3.144531 5.90625 -3.53125 C 5.90625 -3.925781 5.835938 -4.285156 5.703125 -4.609375 C 5.566406 -4.929688 5.378906 -5.210938 5.140625 -5.453125 C 4.898438 -5.691406 4.609375 -5.875 4.265625 -6 C 3.921875 -6.132812 3.539062 -6.203125 3.125 -6.203125 L 1.71875 -6.203125 L 1.71875 -0.859375 Z M 3.125 -0.859375 "/></g></g></g><g fill="#000000" fill-opacity="1"><g transform="translate(252.704094, 298.067325)"><g><path d="M 0.8125 -7.0625 L 5.75 -7.0625 L 5.75 -6.203125 L 1.71875 -6.203125 L 1.71875 -3.984375 L 5 -3.984375 L 5 -3.125 L 1.71875 -3.125 L 1.71875 -0.859375 L 5.75 -0.859375 L 5.75 0 L 0.8125 0 Z M 0.8125 -7.0625 "/></g></g></g><g fill="#000000" fill-opacity="1"><g transform="translate(261.37543, 298.067325)"><g><path d="M 2.015625 -7.0625 L 4.796875 -7.0625 L 6.609375 0 L 5.703125 0 L 5.140625 -2.0625 L 1.671875 -2.0625 L 1.109375 0 L 0.203125 0 Z M 4.953125 -2.921875 L 4.09375 -6.203125 L 2.71875 -6.203125 L 1.875 -2.921875 Z M 4.953125 -2.921875 "/></g></g></g><g fill="#000000" fill-opacity="1"><g transform="translate(270.701838, 298.067325)"><g><path d="M 0.8125 -7.0625 L 1.71875 -7.0625 L 1.71875 -0.859375 L 5.40625 -0.859375 L 5.40625 0 L 0.8125 0 Z M 0.8125 -7.0625 "/></g></g></g><g fill="#000000" fill-opacity="1"><g transform="translate(278.667703, 298.067325)"><g><path d="M 3.328125 0.203125 C 3.003906 0.203125 2.710938 0.171875 2.453125 0.109375 C 2.203125 0.046875 1.976562 -0.0351562 1.78125 -0.140625 C 1.59375 -0.242188 1.421875 -0.363281 1.265625 -0.5 C 1.117188 -0.632812 0.992188 -0.769531 0.890625 -0.90625 C 0.648438 -1.226562 0.488281 -1.597656 0.40625 -2.015625 L 1.3125 -2.015625 C 1.375 -1.765625 1.492188 -1.535156 1.671875 -1.328125 C 1.816406 -1.148438 2.019531 -0.992188 2.28125 -0.859375 C 2.550781 -0.722656 2.898438 -0.65625 3.328125 -0.65625 C 3.628906 -0.65625 3.890625 -0.6875 4.109375 -0.75 C 4.335938 -0.8125 4.523438 -0.898438 4.671875 -1.015625 C 4.816406 -1.128906 4.921875 -1.257812 4.984375 -1.40625 C 5.054688 -1.550781 5.09375 -1.707031 5.09375 -1.875 C 5.09375 -2.082031 5.03125 -2.253906 4.90625 -2.390625 C 4.78125 -2.535156 4.613281 -2.660156 4.40625 -2.765625 C 4.195312 -2.867188 3.960938 -2.957031 3.703125 -3.03125 C 3.441406 -3.101562 3.175781 -3.175781 2.90625 -3.25 C 2.632812 -3.332031 2.363281 -3.421875 2.09375 -3.515625 C 1.832031 -3.617188 1.597656 -3.742188 1.390625 -3.890625 C 1.179688 -4.046875 1.015625 -4.234375 0.890625 -4.453125 C 0.765625 -4.671875 0.703125 -4.9375 0.703125 -5.25 C 0.703125 -5.507812 0.757812 -5.757812 0.875 -6 C 1 -6.25 1.164062 -6.46875 1.375 -6.65625 C 1.59375 -6.84375 1.859375 -6.988281 2.171875 -7.09375 C 2.484375 -7.207031 2.835938 -7.265625 3.234375 -7.265625 C 3.523438 -7.265625 3.789062 -7.234375 4.03125 -7.171875 C 4.269531 -7.117188 4.476562 -7.046875 4.65625 -6.953125 C 4.84375 -6.867188 5.003906 -6.765625 5.140625 -6.640625 C 5.273438 -6.515625 5.390625 -6.394531 5.484375 -6.28125 C 5.710938 -5.988281 5.867188 -5.660156 5.953125 -5.296875 L 5.046875 -5.296875 C 4.984375 -5.503906 4.875 -5.691406 4.71875 -5.859375 C 4.582031 -5.992188 4.394531 -6.117188 4.15625 -6.234375 C 3.925781 -6.347656 3.617188 -6.40625 3.234375 -6.40625 C 2.972656 -6.40625 2.738281 -6.375 2.53125 -6.3125 C 2.332031 -6.25 2.160156 -6.160156 2.015625 -6.046875 C 1.878906 -5.941406 1.773438 -5.816406 1.703125 -5.671875 C 1.640625 -5.535156 1.609375 -5.394531 1.609375 -5.25 C 1.609375 -4.96875 1.71875 -4.75 1.9375 -4.59375 C 2.15625 -4.4375 2.425781 -4.300781 2.75 -4.1875 C 3.070312 -4.082031 3.421875 -3.976562 3.796875 -3.875 C 4.179688 -3.78125 4.535156 -3.65625 4.859375 -3.5 C 5.191406 -3.34375 5.460938 -3.132812 5.671875 -2.875 C 5.890625 -2.625 6 -2.289062 6 -1.875 C 6 -1.59375 5.941406 -1.328125 5.828125 -1.078125 C 5.710938 -0.828125 5.539062 -0.601562 5.3125 -0.40625 C 5.082031 -0.21875 4.800781 -0.0703125 4.46875 0.03125 C 4.144531 0.144531 3.765625 0.203125 3.328125 0.203125 Z M 3.328125 0.203125 "/></g></g></g><g fill="#000000" fill-opacity="1"><g transform="translate(287.641381, 298.067325)"><g><path d="M 1.0625 0.15625 C 0.882812 0.15625 0.738281 0.0976562 0.625 -0.015625 C 0.507812 -0.128906 0.453125 -0.273438 0.453125 -0.453125 C 0.453125 -0.628906 0.507812 -0.773438 0.625 -0.890625 C 0.738281 -1.003906 0.882812 -1.0625 1.0625 -1.0625 C 1.238281 -1.0625 1.382812 -1.003906 1.5 -0.890625 C 1.613281 -0.773438 1.671875 -0.628906 1.671875 -0.453125 C 1.671875 -0.273438 1.613281 -0.128906 1.5 -0.015625 C 1.382812 0.0976562 1.238281 0.15625 1.0625 0.15625 Z M 1.0625 0.15625 "/></g></g></g><g fill="#000000" fill-opacity="1"><g transform="translate(187.884016, 279.149043)"><g/></g></g><g fill="#000000" fill-opacity="1"><g transform="translate(197.305891, 279.149043)"><g><path d="M 2.6875 -23.546875 L 10.421875 -23.546875 C 12.203125 -23.546875 13.84375 -23.242188 15.34375 -22.640625 C 16.84375 -22.035156 18.140625 -21.203125 19.234375 -20.140625 C 20.335938 -19.085938 21.191406 -17.84375 21.796875 -16.40625 C 22.398438 -14.976562 22.703125 -13.4375 22.703125 -11.78125 C 22.703125 -10.113281 22.398438 -8.5625 21.796875 -7.125 C 21.191406 -5.695312 20.335938 -4.453125 19.234375 -3.390625 C 18.140625 -2.335938 16.84375 -1.507812 15.34375 -0.90625 C 13.84375 -0.300781 12.203125 0 10.421875 0 L 2.6875 0 Z M 10.421875 -2.859375 C 11.816406 -2.859375 13.078125 -3.078125 14.203125 -3.515625 C 15.335938 -3.953125 16.304688 -4.566406 17.109375 -5.359375 C 17.921875 -6.160156 18.550781 -7.101562 19 -8.1875 C 19.457031 -9.28125 19.6875 -10.476562 19.6875 -11.78125 C 19.6875 -13.070312 19.457031 -14.257812 19 -15.34375 C 18.550781 -16.4375 17.921875 -17.378906 17.109375 -18.171875 C 16.304688 -18.972656 15.335938 -19.59375 14.203125 -20.03125 C 13.078125 -20.46875 11.816406 -20.6875 10.421875 -20.6875 L 5.71875 -20.6875 L 5.71875 -2.859375 Z M 10.421875 -2.859375 "/></g></g></g><g fill="#000000" fill-opacity="1"><g transform="translate(221.529975, 279.149043)"><g><path d="M 9.921875 0.34375 C 8.710938 0.34375 7.578125 0.125 6.515625 -0.3125 C 5.460938 -0.75 4.554688 -1.351562 3.796875 -2.125 C 3.035156 -2.90625 2.4375 -3.832031 2 -4.90625 C 1.5625 -5.988281 1.34375 -7.15625 1.34375 -8.40625 C 1.34375 -9.664062 1.5625 -10.832031 2 -11.90625 C 2.4375 -12.988281 3.035156 -13.914062 3.796875 -14.6875 C 4.554688 -15.457031 5.460938 -16.0625 6.515625 -16.5 C 7.578125 -16.9375 8.710938 -17.15625 9.921875 -17.15625 C 11.128906 -17.15625 12.257812 -16.9375 13.3125 -16.5 C 14.375 -16.0625 15.285156 -15.460938 16.046875 -14.703125 C 16.804688 -13.941406 17.40625 -13.03125 17.84375 -11.96875 C 18.28125 -10.914062 18.5 -9.785156 18.5 -8.578125 L 18.5 -7.5625 L 4.03125 -7.5625 C 4.125 -6.78125 4.335938 -6.054688 4.671875 -5.390625 C 5.015625 -4.734375 5.441406 -4.171875 5.953125 -3.703125 C 6.472656 -3.234375 7.070312 -2.863281 7.75 -2.59375 C 8.4375 -2.320312 9.160156 -2.1875 9.921875 -2.1875 C 10.929688 -2.1875 11.785156 -2.34375 12.484375 -2.65625 C 13.179688 -2.96875 13.753906 -3.316406 14.203125 -3.703125 C 14.710938 -4.128906 15.132812 -4.632812 15.46875 -5.21875 L 18.171875 -5.21875 C 17.765625 -4.164062 17.191406 -3.234375 16.453125 -2.421875 C 15.796875 -1.722656 14.941406 -1.085938 13.890625 -0.515625 C 12.835938 0.0546875 11.515625 0.34375 9.921875 0.34375 Z M 15.640625 -9.921875 C 15.554688 -10.546875 15.359375 -11.144531 15.046875 -11.71875 C 14.742188 -12.289062 14.347656 -12.789062 13.859375 -13.21875 C 13.367188 -13.644531 12.789062 -13.988281 12.125 -14.25 C 11.46875 -14.507812 10.734375 -14.640625 9.921875 -14.640625 C 9.117188 -14.640625 8.382812 -14.507812 7.71875 -14.25 C 7.0625 -13.988281 6.476562 -13.644531 5.96875 -13.21875 C 5.46875 -12.789062 5.054688 -12.289062 4.734375 -11.71875 C 4.421875 -11.144531 4.210938 -10.546875 4.109375 -9.921875 Z M 15.640625 -9.921875 "/></g></g></g><g fill="#000000" fill-opacity="1"><g transform="translate(241.380266, 279.149043)"><g><path d="M 9.421875 0.34375 C 8.316406 0.34375 7.273438 0.125 6.296875 -0.3125 C 5.328125 -0.75 4.472656 -1.351562 3.734375 -2.125 C 2.992188 -2.90625 2.410156 -3.832031 1.984375 -4.90625 C 1.554688 -5.988281 1.34375 -7.15625 1.34375 -8.40625 C 1.34375 -9.664062 1.554688 -10.832031 1.984375 -11.90625 C 2.410156 -12.988281 2.992188 -13.914062 3.734375 -14.6875 C 4.472656 -15.457031 5.328125 -16.0625 6.296875 -16.5 C 7.273438 -16.9375 8.316406 -17.15625 9.421875 -17.15625 C 10.515625 -17.15625 11.441406 -17 12.203125 -16.6875 C 12.972656 -16.375 13.597656 -16.023438 14.078125 -15.640625 C 14.554688 -15.265625 14.898438 -14.910156 15.109375 -14.578125 C 15.328125 -14.253906 15.4375 -14.09375 15.4375 -14.09375 L 15.46875 -14.09375 L 15.46875 -16.8125 L 18.171875 -16.8125 L 18.171875 0 L 15.46875 0 L 15.46875 -2.6875 L 15.4375 -2.6875 C 15.4375 -2.6875 15.328125 -2.523438 15.109375 -2.203125 C 14.898438 -1.878906 14.554688 -1.53125 14.078125 -1.15625 C 13.597656 -0.789062 12.972656 -0.445312 12.203125 -0.125 C 11.441406 0.1875 10.515625 0.34375 9.421875 0.34375 Z M 9.75 -2.1875 C 10.5625 -2.1875 11.3125 -2.335938 12 -2.640625 C 12.695312 -2.941406 13.300781 -3.367188 13.8125 -3.921875 C 14.332031 -4.472656 14.738281 -5.128906 15.03125 -5.890625 C 15.320312 -6.648438 15.46875 -7.488281 15.46875 -8.40625 C 15.46875 -9.332031 15.320312 -10.175781 15.03125 -10.9375 C 14.738281 -11.695312 14.332031 -12.347656 13.8125 -12.890625 C 13.300781 -13.441406 12.695312 -13.867188 12 -14.171875 C 11.3125 -14.484375 10.5625 -14.640625 9.75 -14.640625 C 8.945312 -14.640625 8.195312 -14.484375 7.5 -14.171875 C 6.800781 -13.867188 6.191406 -13.441406 5.671875 -12.890625 C 5.160156 -12.347656 4.757812 -11.695312 4.46875 -10.9375 C 4.175781 -10.175781 4.03125 -9.332031 4.03125 -8.40625 C 4.03125 -7.488281 4.175781 -6.648438 4.46875 -5.890625 C 4.757812 -5.128906 5.160156 -4.472656 5.671875 -3.921875 C 6.191406 -3.367188 6.800781 -2.941406 7.5 -2.640625 C 8.195312 -2.335938 8.945312 -2.1875 9.75 -2.1875 Z M 9.75 -2.1875 "/></g></g></g><g fill="#000000" fill-opacity="1"><g transform="translate(261.903447, 279.149043)"><g><path d="M 2.359375 -23.546875 L 5.046875 -23.546875 L 5.046875 -2.515625 L 8.921875 -2.515625 L 8.921875 0 L 2.359375 0 Z M 2.359375 -23.546875 "/></g></g></g><g fill="#000000" fill-opacity="1"><g transform="translate(271.155697, 279.149043)"><g><path d="M 8.921875 0.34375 C 8.085938 0.34375 7.34375 0.257812 6.6875 0.09375 C 6.039062 -0.0625 5.457031 -0.265625 4.9375 -0.515625 C 4.425781 -0.773438 3.972656 -1.070312 3.578125 -1.40625 C 3.191406 -1.75 2.863281 -2.085938 2.59375 -2.421875 C 1.9375 -3.234375 1.460938 -4.164062 1.171875 -5.21875 L 4.03125 -5.21875 C 4.257812 -4.632812 4.585938 -4.128906 5.015625 -3.703125 C 5.390625 -3.316406 5.882812 -2.96875 6.5 -2.65625 C 7.125 -2.34375 7.929688 -2.1875 8.921875 -2.1875 C 10.441406 -2.1875 11.519531 -2.4375 12.15625 -2.9375 C 12.800781 -3.445312 13.125 -4.035156 13.125 -4.703125 C 13.125 -5.285156 12.847656 -5.734375 12.296875 -6.046875 C 11.742188 -6.367188 11.054688 -6.640625 10.234375 -6.859375 C 9.421875 -7.085938 8.53125 -7.300781 7.5625 -7.5 C 6.601562 -7.695312 5.710938 -7.988281 4.890625 -8.375 C 4.078125 -8.757812 3.394531 -9.265625 2.84375 -9.890625 C 2.289062 -10.515625 2.015625 -11.367188 2.015625 -12.453125 C 2.015625 -13.078125 2.148438 -13.675781 2.421875 -14.25 C 2.691406 -14.820312 3.09375 -15.320312 3.625 -15.75 C 4.164062 -16.175781 4.832031 -16.515625 5.625 -16.765625 C 6.425781 -17.023438 7.351562 -17.15625 8.40625 -17.15625 C 9.195312 -17.15625 9.898438 -17.082031 10.515625 -16.9375 C 11.128906 -16.789062 11.675781 -16.597656 12.15625 -16.359375 C 12.644531 -16.128906 13.066406 -15.863281 13.421875 -15.5625 C 13.773438 -15.257812 14.085938 -14.953125 14.359375 -14.640625 C 14.941406 -13.898438 15.367188 -13.054688 15.640625 -12.109375 L 12.78125 -12.109375 C 12.582031 -12.554688 12.289062 -12.972656 11.90625 -13.359375 C 11.59375 -13.671875 11.148438 -13.960938 10.578125 -14.234375 C 10.003906 -14.503906 9.28125 -14.640625 8.40625 -14.640625 C 7.78125 -14.640625 7.234375 -14.570312 6.765625 -14.4375 C 6.296875 -14.300781 5.90625 -14.125 5.59375 -13.90625 C 5.289062 -13.695312 5.066406 -13.460938 4.921875 -13.203125 C 4.773438 -12.941406 4.703125 -12.691406 4.703125 -12.453125 C 4.703125 -11.867188 4.976562 -11.414062 5.53125 -11.09375 C 6.082031 -10.78125 6.765625 -10.507812 7.578125 -10.28125 C 8.398438 -10.0625 9.289062 -9.851562 10.25 -9.65625 C 11.21875 -9.457031 12.109375 -9.164062 12.921875 -8.78125 C 13.742188 -8.394531 14.429688 -7.882812 14.984375 -7.25 C 15.535156 -6.613281 15.8125 -5.765625 15.8125 -4.703125 C 15.8125 -4.035156 15.664062 -3.398438 15.375 -2.796875 C 15.082031 -2.191406 14.644531 -1.648438 14.0625 -1.171875 C 13.476562 -0.703125 12.757812 -0.332031 11.90625 -0.0625 C 11.050781 0.207031 10.054688 0.34375 8.921875 0.34375 Z M 8.921875 0.34375 "/></g></g></g></svg>