<?xml version="1.0" encoding="utf-8"?>
<!-- Generator: Adobe Illustrator 27.5.0, SVG Export Plug-In . SVG Version: 6.00 Build 0)  -->
<svg version="1.1" id="Layer_1" xmlns="http://www.w3.org/2000/svg" xmlns:xlink="http://www.w3.org/1999/xlink" x="0px" y="0px"
	 viewBox="0 0 500 500" style="enable-background:new 0 0 500 500;" xml:space="preserve">
<rect style="fill:#fff;" width="500" height="500"/>
<g>
	<path style="fill:#FF4500;" d="M162.107,406.204c6.053,0.763,9.235,6.055,10.592,9.142c0.185,0.422,0.38,0.9,0.593,1.418
		c1.508,3.684,3.788,9.252,8.735,11.167c1.704,0.661,3.584,0.803,5.607,0.459c-0.842,1.934-0.884,4.207,0.089,6.259
		c1.786,3.766,6.304,5.376,10.07,3.59c3.766-1.786,5.376-6.304,3.589-10.069c-0.984-2.075-2.798-3.491-4.858-4.05
		c1.48-1.324,2.518-2.829,3.069-4.521c1.644-5.043-1.227-10.33-3.124-13.829c-0.266-0.493-0.514-0.947-0.723-1.357
		c-1.533-3.003-3.62-8.815-0.381-13.986c3.409-5.446,0.567-9.899,0.442-10.087c-0.337-0.517-1.004-0.703-1.563-0.439l-11.638,5.52
		c-1.944-2.135-6.075-2.409-10.107-0.496c-4.028,1.911-6.431,5.286-6.005,8.14c0,0,0.326,1.852,1.081,2.226l7.841-3.72
		c0.034-0.017,0.056-0.047,0.088-0.065c0.035-0.013,0.072-0.011,0.104-0.026l18.572-8.811c0.441,1.272,0.828,3.664-0.914,6.446
		c-3.885,6.205-1.495,12.954,0.275,16.424c0.218,0.427,0.474,0.9,0.752,1.411c1.697,3.127,4.261,7.853,2.945,11.885
		c-0.752,2.304-2.746,4.237-5.926,5.746c-0.053,0.024-0.1,0.054-0.15,0.081c-0.014,0.006-0.029,0.003-0.043,0.011
		c-3.181,1.509-5.94,1.83-8.199,0.955c-3.955-1.533-5.992-6.509-7.339-9.801c-0.222-0.537-0.425-1.036-0.62-1.474
		c-1.566-3.567-5.28-9.687-12.546-10.603c-3.259-0.413-4.867-2.224-5.571-3.369l7.21-3.421c0.626-0.298,0.829-1.072,0.518-1.693
		c-0.297-0.595-1.032-0.8-1.631-0.515l-8.278,3.926c-0.556,0.264-0.834,0.899-0.65,1.489
		C154.08,400.379,155.729,405.399,162.107,406.204z M174.55,389.244c-0.033,0.015-0.056,0.044-0.087,0.063
		c-0.035,0.014-0.071,0.012-0.105,0.028l-5.371,2.547c0.313-1.524,1.911-3.461,4.574-4.724c2.663-1.264,5.173-1.276,6.553-0.555
		L174.55,389.244z M192.373,426.814c2.535-1.202,5.573-0.118,6.775,2.416c1.202,2.532,0.118,5.572-2.415,6.773
		c-2.535,1.203-5.573,0.119-6.775-2.414C188.755,431.056,189.839,428.016,192.373,426.814z"/>
	<path style="fill:#FF4500;" d="M193.093,419.786c0.659,0.185,1.344-0.195,1.531-0.853c0.128-0.45,0.582-3.06-3.133-10.085
		c-3.585-6.78-3.808-10.246-3.793-11.147c0.015-0.684-0.529-1.248-1.211-1.26c-0.199-0.003-0.386,0.04-0.552,0.119
		c-0.41,0.194-0.7,0.609-0.708,1.095c-0.026,1.346,0.322,5.244,4.077,12.349c3.147,5.954,2.942,8.168,2.923,8.311
		C192.08,418.956,192.458,419.603,193.093,419.786z"/>
	<path style="fill:#FF4500;" d="M188.398,394.237l0.662-2.693c0.164-0.663-0.242-1.333-0.905-1.496
		c-0.288-0.07-0.576-0.035-0.824,0.083c-0.326,0.154-0.58,0.447-0.672,0.823l-0.664,2.693c-0.161,0.662,0.244,1.333,0.908,1.496
		C187.566,395.306,188.237,394.901,188.398,394.237z"/>
</g>
<g>
	<path style="fill:#FF4500;" d="M374.442,319.997l-10.549,3.342c-2.79,0.885-4.344,3.875-3.458,6.666l14.855,46.882
		c0.065,0.211,0.183,0.401,0.342,0.557l6.095,5.935c0.342,0.332,0.836,0.458,1.295,0.331l7.68-2.135l-0.755,6.177l-3.181-3.074
		c-0.532-0.515-1.379-0.5-1.895,0.031c-0.518,0.534-0.502,1.382,0.031,1.896l5.115,4.945c0.365,0.354,0.9,0.471,1.379,0.3
		c0.327-0.115,0.589-0.349,0.743-0.647c0.072-0.139,0.12-0.292,0.14-0.454l1.325-10.841c0.056-0.444-0.116-0.887-0.456-1.179
		c-0.34-0.292-0.801-0.395-1.232-0.275l-8.871,2.466l-5.302-5.164l-14.751-46.56c-0.438-1.383,0.33-2.863,1.712-3.302l10.548-3.342
		c0.67-0.213,1.381-0.151,2.005,0.173c0.624,0.323,1.083,0.869,1.296,1.54l2.911,9.189l-11.708,3.705
		c-0.696,0.22-1.088,0.956-0.881,1.655l1.174,3.995c0.102,0.347,0.338,0.638,0.656,0.808c0.318,0.168,0.691,0.201,1.035,0.094
		l11.788-3.741l9.159,28.903l-10.739,3.545l-5.466-17.148c-0.225-0.705-0.979-1.094-1.685-0.869
		c-0.704,0.225-1.094,0.979-0.869,1.683l5.877,18.439c0.107,0.341,0.35,0.624,0.668,0.788c0.318,0.162,0.689,0.19,1.029,0.077
		l10.904-3.598c0,0,3.588-0.764,3.235-2.464l-9.962-31.444c-0.107-0.339-0.346-0.622-0.66-0.785
		c-0.316-0.164-0.684-0.195-1.023-0.088l-11.761,3.732l-0.419-1.423l11.734-3.713c0.339-0.108,0.622-0.345,0.785-0.66l0,0
		c0.164-0.316,0.195-0.684,0.089-1.022l-3.316-10.467c-0.428-1.353-1.358-2.458-2.616-3.111
		C377.232,319.692,375.795,319.568,374.442,319.997z"/>
	<path style="fill:#FF4500;" d="M375.219,352.751c0.16-0.31,0.2-0.683,0.082-1.04l-1.589-4.783c-0.233-0.702-0.993-1.082-1.694-0.85
		c-0.702,0.234-1.082,0.992-0.85,1.695l1.588,4.782c0.232,0.703,0.992,1.084,1.695,0.85
		C374.796,353.291,375.064,353.051,375.219,352.751z"/>
</g>
<g>
	<path style="fill:#FF4500;" d="M125.414,266.173l6.372-1.117c0.726-0.127,1.21-0.817,1.083-1.541
		c-0.126-0.725-0.818-1.21-1.543-1.083l-5.06,0.887l-8.526-48.69l36.407-6.376l8.528,48.69l-5.255,0.92
		c-0.723,0.126-1.209,0.817-1.083,1.542c0.127,0.725,0.821,1.209,1.542,1.081l6.567-1.148c0.726-0.127,1.208-0.819,1.083-1.541
		l-8.986-51.314c-0.127-0.726-0.816-1.211-1.543-1.084l-39.03,6.835c-0.726,0.128-1.21,0.819-1.083,1.543l8.986,51.313
		C123.998,265.814,124.688,266.3,125.414,266.173z"/>
	<path style="fill:#FF4500;" d="M152.421,255.627l-16.96,2.969c-0.723,0.127-1.208,0.817-1.082,1.542l1.058,6.037
		c0.126,0.725,0.817,1.21,1.542,1.083l16.959-2.969c0.724-0.127,1.207-0.819,1.08-1.544l-1.056-6.036
		C153.835,255.984,153.145,255.5,152.421,255.627z M152.166,261.893l-14.335,2.511l-0.599-3.413l14.336-2.51L152.166,261.893z"/>
	<path style="fill:#FF4500;" d="M157.303,246.703c-0.218-1.237-1.399-2.067-2.636-1.85c-1.235,0.216-2.067,1.398-1.85,2.635
		c0.216,1.236,1.399,2.065,2.636,1.85C156.69,249.121,157.52,247.939,157.303,246.703z"/>
	<path style="fill:#FF4500;" d="M128.671,253.068l18.522-3.242c0.725-0.128,1.21-0.818,1.083-1.544
		c-0.127-0.725-0.818-1.209-1.544-1.082l-18.522,3.244c-0.724,0.127-1.208,0.817-1.081,1.541
		C127.256,252.711,127.947,253.196,128.671,253.068z"/>
	<path style="fill:#FF4500;" d="M153.819,240.001c1.235-0.216,2.065-1.398,1.849-2.635c-0.216-1.235-1.399-2.066-2.635-1.851
		c-1.236,0.217-2.067,1.4-1.851,2.636C151.398,239.388,152.582,240.218,153.819,240.001z"/>
	<path style="fill:#FF4500;" d="M127.036,243.732l18.522-3.244c0.725-0.127,1.21-0.817,1.083-1.542
		c-0.127-0.725-0.817-1.209-1.543-1.082l-18.522,3.243c-0.724,0.127-1.209,0.818-1.082,1.543
		C125.622,243.374,126.312,243.859,127.036,243.732z"/>
	<path style="fill:#FF4500;" d="M152.184,230.665c1.236-0.216,2.065-1.398,1.849-2.635c-0.217-1.237-1.399-2.067-2.635-1.852
		c-1.235,0.217-2.067,1.4-1.85,2.637C149.764,230.052,150.947,230.881,152.184,230.665z"/>
	<path style="fill:#FF4500;" d="M125.401,234.395l18.522-3.244c0.725-0.128,1.209-0.817,1.083-1.542
		c-0.126-0.725-0.816-1.209-1.543-1.082l-18.521,3.245c-0.725,0.126-1.209,0.815-1.082,1.541
		C123.986,234.038,124.677,234.523,125.401,234.395z"/>
	<path style="fill:#FF4500;" d="M150.549,221.328c1.235-0.217,2.065-1.4,1.849-2.636c-0.216-1.237-1.398-2.066-2.635-1.85
		c-1.236,0.217-2.067,1.398-1.851,2.636C148.129,220.714,149.311,221.545,150.549,221.328z"/>
	<path style="fill:#FF4500;" d="M123.766,225.059l18.521-3.244c0.726-0.127,1.211-0.818,1.084-1.543
		c-0.126-0.724-0.817-1.209-1.544-1.082l-18.521,3.244c-0.724,0.127-1.21,0.817-1.082,1.542
		C122.352,224.701,123.042,225.186,123.766,225.059z"/>
</g>
<g>
	<path style="fill:#FF4500;" d="M397.659,346.389c4.283,2.071,9.449,0.271,11.522-4.011c0.013-0.027,0.024-0.056,0.037-0.085
		l12.808-31.95c0.52-1.162,0.888-2.019,1.058-2.719c1.062-0.055,2.126-0.257,3.164-0.618c4.559-1.587,9.446-6.625,9.489-16.008
		c0.018-3.816,1.463-5.574,2.421-6.738c0.634-0.77,1.289-1.566,0.979-2.625c-0.371-1.264-1.734-1.813-5.253-2.951
		c-3.045-0.982-6.166-0.932-9.274,0.15c-7.003,2.438-11.559,9.148-12.603,11.307c-1.723,3.563-1.923,7.077-0.578,10.161
		c0.435,0.995,1.028,1.931,1.758,2.787c0.021,0.025,0.045,0.049,0.066,0.073c0.578,0.671,1.246,1.284,1.98,1.845
		c0.508,0.425,1.141,0.869,1.953,1.261l0.285,0.149c0.032,0.015,0.057,0.023,0.088,0.039c0.053,0.024,0.102,0.056,0.156,0.082
		c0.847,0.409,1.73,0.692,2.633,0.875c-0.215,0.592-0.602,1.455-0.791,1.882l-12.81,31.956c-1.442,2.921-4.983,4.143-7.921,2.726
		c-1.43-0.692-2.505-1.898-3.027-3.398c-0.518-1.485-0.43-3.083,0.244-4.503l15.42-26.96c0.367-0.643,0.145-1.463-0.498-1.829
		s-1.461-0.145-1.83,0.497l-15.443,27.003c-0.015,0.027-0.028,0.055-0.043,0.083c-1.002,2.074-1.14,4.415-0.383,6.59
		C394.025,343.635,395.587,345.386,397.659,346.389z M414.421,291.309c1.154-2.391,5.381-7.962,11.07-9.943
		c2.545-0.886,5.094-0.93,7.568-0.131c0.638,0.207,2.309,0.747,3.173,1.146c-0.05,0.06-0.099,0.12-0.146,0.179
		c-1.052,1.277-3.01,3.657-3.031,8.426c-0.036,7.985-3.996,12.203-7.69,13.49c-1.297,0.45-2.645,0.581-3.95,0.405
		c-0.166-0.044-0.331-0.083-0.491-0.119c-0.584-0.131-1.31-0.3-2.178-0.708c-0.516-0.257-1.006-0.543-1.463-0.857
		c-0.086-0.063-0.181-0.126-0.26-0.19c-0.018-0.014-0.036-0.028-0.054-0.041c-0.371-0.31-0.667-0.615-0.929-0.889
		c-0.287-0.302-0.565-0.588-0.886-0.814c-0.525-0.632-0.956-1.312-1.269-2.032C412.849,296.851,413.028,294.186,414.421,291.309z"/>
	<path style="fill:#FF4500;" d="M413.502,316.45c0.681,0.287,1.468-0.034,1.756-0.717l1.758-4.188
		c0.286-0.682-0.034-1.469-0.718-1.753c-0.316-0.135-0.657-0.138-0.958-0.032c-0.347,0.121-0.643,0.384-0.795,0.748l-1.759,4.187
		C412.499,315.379,412.821,316.164,413.502,316.45z"/>
	<path style="fill:#FF4500;" d="M410.949,319.074l-8.235,19.627c-0.287,0.684,0.035,1.469,0.718,1.756
		c0.685,0.287,1.469-0.038,1.755-0.719l8.233-19.627c0.288-0.682-0.034-1.468-0.716-1.754c-0.318-0.134-0.659-0.135-0.959-0.03
		C411.397,318.447,411.102,318.71,410.949,319.074z"/>
</g>
<path style="fill:#FF4500;" d="M240.973,446.682l16.059-11.103c0.314-0.219,0.521-0.559,0.568-0.941
	c0.045-0.38-0.072-0.762-0.326-1.049c-0.123-0.139-12.292-13.965-13.916-20.005c-0.535-1.991,0.34-8.389,1.02-11.921
	c0-0.005,0.001-0.008,0.002-0.011c0.11-0.605-0.205-1.207-0.764-1.463c-0.118-0.053-11.791-5.358-15.426-7.252
	c-4.564-2.382-17.747-10.039-17.879-10.117c-0.449-0.26-1.008-0.238-1.434,0.056c-0.299,0.206-0.496,0.518-0.558,0.862
	c-0.027,0.149-0.029,0.304-0.004,0.457c0.023,0.146,2.383,14.674,2.949,19.615c0.489,4.274,1.33,17.685,1.338,17.818
	c0.039,0.636,0.519,1.153,1.147,1.245c3.469,0.499,9.579,1.713,11.206,2.852c0.947,0.664,2.627,2.223,5.244,5.871
	c0.432,0.602,1.27,0.74,1.87,0.308c0.602-0.429,0.74-1.267,0.309-1.868c-2.277-3.18-4.26-5.368-5.887-6.505
	c-2.229-1.563-8.632-2.721-11.282-3.148c-0.212-3.311-0.861-13.208-1.282-16.878c-0.425-3.711-1.796-12.439-2.518-16.951
	c4.07,2.352,12.093,6.961,15.542,8.76c3.121,1.629,11.707,5.563,14.604,6.884c-0.469,2.674-1.517,9.364-0.788,12.082
	c1.513,5.619,10.473,16.402,13.51,19.944l-13.653,9.44c-1.087-1.807-3.188-5.297-4.988-8.275l6.357-4.396
	c0.609-0.42,0.762-1.256,0.34-1.864l-10.771-15.582c1.778-1.97,2.047-4.976,0.474-7.251c-1.835-2.655-5.489-3.322-8.146-1.486
	c-1.328,0.918-2.158,2.291-2.427,3.766c-0.27,1.475,0.021,3.054,0.94,4.382c0.727,1.048,1.746,1.816,2.948,2.217
	c0.702,0.236,1.462-0.142,1.696-0.844c0.24-0.698-0.144-1.463-0.846-1.696c-0.648-0.219-1.201-0.634-1.594-1.202
	c-0.994-1.439-0.634-3.421,0.805-4.418c1.439-0.996,3.422-0.633,4.418,0.806c0.995,1.439,0.635,3.423-0.807,4.418
	c-0.609,0.42-0.761,1.256-0.341,1.864c0.001,0,0.003,0.002,0.005,0.004c0,0.002,0,0.002,0,0.003l10.678,15.442l-6.293,4.352
	c-0.583,0.403-0.75,1.192-0.384,1.796c2.636,4.354,6.372,10.571,6.374,10.572c0.189,0.316,0.504,0.543,0.865,0.619
	C240.29,446.968,240.668,446.892,240.973,446.682z"/>
<g>
	<path style="fill:#FF4500;" d="M434.259,271.435c4.213,0.176,8.244-1.301,11.349-4.158c3.104-2.855,4.91-6.75,5.085-10.963
		c0.176-4.217-1.301-8.247-4.157-11.35c-1.918-2.084-4.31-3.567-6.945-4.379l0.246-5.921l2.857-25.379
		c0.002-0.031,0.006-0.063,0.007-0.094c0.141-3.42-2.525-6.319-5.946-6.461c-1.658-0.068-3.242,0.511-4.463,1.635
		c-1.221,1.123-1.932,2.654-1.999,4.312c-0.002,0.031-0.002,0.062-0.002,0.093l0.575,20.781c0.018,0.741,0.637,1.322,1.377,1.303
		c0.74-0.02,1.323-0.638,1.303-1.377l-0.572-20.731c0.098-1.865,1.799-3.413,3.669-3.336c1.93,0.081,3.436,1.704,3.382,3.628
		l-2.717,24.13l-4.156-0.173c-0.355-0.015-0.702,0.112-0.963,0.352c-0.263,0.241-0.417,0.576-0.433,0.932l-0.247,5.971
		c-2.694,0.592-5.201,1.87-7.285,3.789c-3.103,2.856-4.91,6.749-5.084,10.964C418.775,263.701,425.56,271.072,434.259,271.435z
		 M434.378,235.729l2.726,0.113l-0.169,4.057l-2.726-0.114L434.378,235.729z M421.815,255.115c0.145-3.5,1.645-6.733,4.222-9.104
		c2.577-2.372,5.924-3.599,9.422-3.453c3.499,0.145,6.731,1.645,9.102,4.223c2.371,2.576,3.598,5.922,3.452,9.42
		c-0.145,3.5-1.645,6.732-4.222,9.103c-2.577,2.371-5.924,3.598-9.422,3.453C427.147,268.457,421.516,262.336,421.815,255.115z"/>
	<path style="fill:#FF4500;" d="M434.454,266.758c2.964,0.125,5.8-0.914,7.984-2.926c2.183-2.008,3.454-4.748,3.578-7.713
		c0.122-2.965-0.917-5.801-2.926-7.986c-2.011-2.185-4.75-3.454-7.715-3.577c-2.951-0.123-5.826,0.938-7.989,2.93
		c-0.168,0.154-0.332,0.314-0.491,0.48c-0.479,0.499-0.464,1.294,0.036,1.773c0.499,0.479,1.297,0.475,1.775-0.036
		c1.706-1.772,4.103-2.742,6.565-2.64c2.296,0.094,4.416,1.078,5.972,2.77c1.556,1.69,2.361,3.885,2.266,6.182
		c-0.096,2.295-1.079,4.416-2.771,5.971c-1.689,1.555-3.885,2.361-6.18,2.264c-2.296-0.094-4.417-1.078-5.973-2.77
		c-1.557-1.69-2.359-3.885-2.264-6.18c0.028-0.693-0.51-1.277-1.202-1.307c-0.693-0.029-1.277,0.51-1.307,1.203
		c-0.122,2.963,0.916,5.799,2.925,7.982C428.749,265.365,431.488,266.635,434.454,266.758z"/>
</g>
<g>
	<path style="fill:#FF4500;" d="M305.064,393.751c0.004,0.127,0.02,0.255,0.062,0.381l7.897,23.8
		c0.182,0.547,0.691,0.916,1.268,0.917l7.199,0.029c0.74,0.001,1.343-0.596,1.346-1.337c0.003-0.739-0.596-1.342-1.335-1.346
		l-6.236-0.023l-5.483-16.523c2.333,1.702,5.193,2.722,8.294,2.732c6.358,0.025,11.837-4.115,13.64-10.054
		c2.293,1.155,4.592,0.75,6.27-0.038c1.725,5.879,7.148,10.197,13.578,10.222c3.037,0.012,5.852-0.942,8.17-2.561l-5.574,16.372
		l-6.234-0.024c-0.738-0.003-1.342,0.595-1.344,1.336c-0.004,0.739,0.594,1.342,1.336,1.346l7.196,0.028
		c0.575,0.001,1.089-0.363,1.273-0.909l8.08-23.738c0.005-0.014,0.005-0.028,0.011-0.042c0.853-1.816,1.348-3.831,1.355-5.966
		c0.031-7.837-6.32-14.24-14.159-14.27c-7.837-0.031-14.238,6.322-14.269,14.161c0,0.43,0.025,0.856,0.06,1.275
		c-1.053,0.671-3.4,1.711-5.705-0.392c-0.256-0.231-0.578-0.349-0.899-0.351c-0.364-0.001-0.729,0.146-0.995,0.439
		c-0.197,0.215-0.285,0.479-0.316,0.75c-0.024,0.066-0.047,0.134-0.059,0.208c-0.973,5.541-5.768,9.547-11.404,9.525
		c-6.359-0.023-11.512-5.218-11.488-11.576c0.025-6.359,5.219-11.514,11.578-11.49c5.455,0.023,10.191,3.914,11.264,9.252
		c0.145,0.727,0.85,1.194,1.577,1.051c0.726-0.145,1.196-0.852,1.051-1.578c-1.32-6.582-7.159-11.378-13.883-11.405
		c-7.837-0.029-14.237,6.324-14.267,14.161C303.909,390.114,304.322,392.021,305.064,393.751z M351.662,376.764
		c6.359,0.024,11.514,5.22,11.489,11.579c-0.024,6.357-5.218,11.512-11.577,11.486c-6.359-0.024-11.513-5.217-11.488-11.577
		C340.11,381.895,345.305,376.738,351.662,376.764z"/>
	<path style="fill:#FF4500;" d="M353.596,397.93c4.533-0.929,7.836-4.963,7.853-9.595c0.003-0.738-0.596-1.343-1.336-1.345
		c-0.74-0.004-1.342,0.595-1.345,1.335c-0.014,3.369-2.415,6.304-5.71,6.978c-0.726,0.148-1.193,0.857-1.045,1.582
		C352.162,397.612,352.869,398.078,353.596,397.93z"/>
	<path style="fill:#FF4500;" d="M325.602,392.024c-0.229-0.156-0.49-0.231-0.748-0.231c-0.431-0.003-0.853,0.203-1.115,0.585
		c-0.526,0.774-1.185,1.427-1.957,1.942c-0.615,0.408-0.783,1.24-0.373,1.858c0.41,0.616,1.244,0.784,1.859,0.372
		c1.061-0.708,1.967-1.604,2.688-2.663C326.372,393.276,326.213,392.441,325.602,392.024z"/>
</g>
<g>
	<path style="fill:#FF4500;" d="M154.707,283.464c-0.051-0.019-0.104-0.03-0.156-0.043c-4.83-1.32-10.115-1.113-15.088,0.949
		c-8.358,3.467-13.635,11.255-14.333,19.707c-0.01,0.063-0.014,0.127-0.015,0.19c-0.263,3.529,0.268,7.166,1.713,10.65
		c1.552,3.74,3.968,6.863,6.92,9.235c0.057,0.052,0.116,0.099,0.181,0.14c6.437,5.07,15.355,6.617,23.445,3.261
		c11.906-4.938,17.575-18.642,12.636-30.548C167.157,290.126,161.375,285.337,154.707,283.464z M129.305,313.89
		c-1.224-2.947-1.711-6.02-1.549-9.012c0.652-0.639,2.315-2.113,4.603-3.063c0,0,0.001,0,0.001,0
		c1.718-0.713,3.722-0.623,5.359,0.24c1.399,0.738,2.336,1.941,2.639,3.387c0.386,1.848,0.28,3.107-0.334,3.963
		c-0.761,1.064-2.523,1.771-5.234,2.102c-0.401,0.049-0.977,0.24-1.44,0.871c-0.951,1.296-0.895,4.358-0.604,7.09
		C131.344,317.844,130.17,315.978,129.305,313.89z M156.348,325.076c-2.806,1.163-5.723,1.655-8.578,1.563
		c-0.017-0.029-4.216-0.533-5.273-0.869c-2.384-0.715-4.634-1.852-6.626-3.367c-0.626-3.613-0.816-7.244-0.438-8.275
		c3.402-0.459,5.559-1.467,6.77-3.161c1.082-1.51,1.329-3.439,0.778-6.073c-0.469-2.24-1.894-4.092-4.012-5.209
		c-2.335-1.233-5.189-1.361-7.637-0.347l-0.001,0.001c-1.14,0.473-2.142,1.049-2.982,1.617c1.539-6.14,5.858-11.504,12.141-14.109
		c3.255-1.351,6.662-1.803,9.945-1.476c-1.639,1.098-3.54,2.622-4.791,4.432c-1.308,1.892-1.931,3.899-1.805,5.804
		c0.125,1.873,1.008,3.508,2.423,4.485c1.643,1.134,3.159,1.05,4.765,0.962c1.852-0.1,4.156-0.227,7.922,1.52
		c1.244,0.577,2.028,1.431,2.399,2.61c0.794,2.522-0.426,5.851-1.266,7.685c-1.113-0.697-2.82-1.469-4.912-1.453
		c-2.633,0.018-5.153,1.251-7.493,3.66c-2.309,2.379-3.283,4.791-3.505,6.956c-0.089,0.86,0.472,1.66,1.316,1.841
		c0.705,0.15,1.288-0.47,1.322-1.189c0.079-1.66,0.764-3.65,2.792-5.739c1.811-1.866,3.681-2.825,5.558-2.847
		c2.591-0.033,4.434,1.742,4.448,1.756c0.293,0.293,0.706,0.434,1.119,0.381c0.41-0.054,0.776-0.294,0.986-0.652
		c0.151-0.26,3.697-6.408,2.197-11.195c-0.601-1.916-1.889-3.344-3.831-4.244c-4.374-2.029-7.161-1.877-9.197-1.766
		c-1.49,0.082-2.245,0.094-3.096-0.493c-0.748-0.517-1.199-1.388-1.27-2.456c-0.085-1.275,0.389-2.732,1.335-4.102
		c1.751-2.534,5.275-4.527,6.514-5.176c5.743,1.729,10.697,5.922,13.17,11.881C171.905,308.573,166.887,320.704,156.348,325.076z"/>
	<path style="fill:#FF4500;" d="M174.421,295.176c-3.301-7.958-9.947-13.89-18.235-16.273c-0.711-0.202-1.454,0.206-1.659,0.918
		c-0.205,0.711,0.206,1.454,0.918,1.659c7.5,2.157,13.514,7.523,16.5,14.723c5.381,12.973-0.795,27.904-13.767,33.285
		c-4.377,1.814-9.151,2.377-13.804,1.624c-0.731-0.118-1.42,0.378-1.537,1.11c-0.119,0.73,0.379,1.419,1.109,1.537
		c4.705,0.76,9.516,0.293,14.003-1.324l1.078,2.598l-9.933,4.121c-0.684,0.283-1.008,1.068-0.724,1.752
		c0.283,0.684,1.067,1.008,1.751,0.725l22.343-9.269c0.684-0.284,1.008-1.067,0.725-1.752c-0.284-0.683-1.068-1.008-1.751-0.724
		l-9.934,4.12l-1.074-2.588C173.925,325.06,180.195,309.098,174.421,295.176z"/>
</g>
<g>
	<path style="fill:#FF4500;" d="M258.168,141.461c-1.792-2.896-0.894-6.827,1.959-8.592l6.517-4.129
		c3.013-1.968,5.872-2.603,8.724-1.931l47.314,11.135c1.491,0.35,2.758,1.261,3.563,2.564c0.807,1.304,1.059,2.844,0.707,4.335
		l-2.4,10.206c-0.352,1.491-1.263,2.757-2.565,3.564c-1.305,0.805-2.843,1.056-4.335,0.703l-41.523-9.808
		c-3.077-0.75-4.988-3.845-4.27-6.903l1.288-5.469c0.351-1.491,1.262-2.757,2.564-3.564c1.304-0.806,2.843-1.057,4.334-0.706
		l32.648,7.682c0.722,0.169,1.168,0.891,0.999,1.613c-0.17,0.721-0.892,1.167-1.612,0.997l-32.648-7.683
		c-0.795-0.186-1.615-0.053-2.31,0.376c-0.694,0.43-1.179,1.104-1.365,1.898l-1.289,5.47c-0.384,1.629,0.643,3.281,2.286,3.682
		l41.514,9.806c0.794,0.187,1.614,0.055,2.309-0.375c0.693-0.429,1.179-1.103,1.364-1.897l2.401-10.206
		c0.375-1.589-0.685-3.303-2.273-3.676l-47.314-11.135c-2.1-0.493-4.277,0.022-6.659,1.576l-6.544,4.148
		c-1.6,0.991-2.112,3.277-1.108,4.9l3.958,6.283c1.494,2.531,3.142,3.871,5.343,4.389l38.432,9.044
		c0.721,0.17,1.167,0.891,0.997,1.612c-0.169,0.721-0.891,1.168-1.611,0.998l-38.432-9.045c-2.929-0.689-5.163-2.46-7.015-5.6
		L258.168,141.461z"/>
</g>
<path style="fill:#FF4500;" d="M124.234,340.645c-0.841,0.063-1.541,0.661-1.809,1.461c-0.208,0.62,0.338,1.211,0.988,1.138
	c2.901-0.329,5.853-0.178,8.716,0.467c1.683,0.379,3.329,0.924,4.893,1.618c0.069,0.031,0.149,0.079,0.132,0.153
	c-0.017,0.074-0.109,0.084-0.185,0.084c-6.995-0.068-12.912,3.951-15.855,10.779c-0.614,1.426-1.412,2.69-2.38,3.775
	c-0.59,0.661-1.661,0.205-1.696-0.68c-0.162-4.051,0.21-8.115,1.11-12.112c0.122-0.54,0.544-2.057,0.953-3.462
	c0.331-1.138-0.746-2.189-1.869-1.811c-9.224,3.099-16.666,10.797-18.956,20.963c-3.489,15.481,6.268,30.915,21.749,34.403
	c13.666,3.08,27.878-4.406,33.072-17.448c0.554-1.393,1.002-2.841,1.331-4.301c0.942-4.179,0.945-8.412,0.009-12.59
	c-0.009-0.064-0.021-0.127-0.04-0.193c-1.374-5.919-4.668-11.369-9.279-15.354c-0.023-0.024-0.049-0.043-0.114-0.095
	c-3.53-3.017-7.792-5.15-12.324-6.171C129.837,340.629,126.998,340.438,124.234,340.645z M103.592,356.252l-0.006-0.033l0.016-0.028
	c2.794-4.825,7.172-8.715,12.331-10.953l0.166-0.073l-0.045,0.178c-0.121,0.476-0.236,0.952-0.344,1.429
	c-1.209,5.368-1.516,10.834-0.91,16.244l0.007,0.064l-0.059,0.026c-0.662,0.303-1.093,0.418-1.1,0.419
	c-3.384,0.759-5.954,0.432-7.644-0.972c-2.52-2.095-2.389-5.967-2.388-6.006C103.622,356.456,103.613,356.362,103.592,356.252z
	 M100.187,371.065l-0.054-0.02l-0.004-0.058c-0.158-2.494,0.04-4.99,0.588-7.419c0.225-0.995,0.523-2.02,0.889-3.047l0.087-0.24
	l0.082,0.241c0.561,1.632,1.44,2.957,2.614,3.938c2.317,1.939,5.628,2.442,9.837,1.497c0.052-0.014,0.368-0.099,0.845-0.282
	l0.102-0.039l0.018,0.108c0.495,2.916,1.261,5.804,2.274,8.579l0.046,0.124l-0.132-0.004
	C111.53,374.265,105.746,373.128,100.187,371.065z M131.865,395.031l-0.177,0.036c-3.694,0.772-7.434,0.744-11.113-0.086
	c-1.881-0.424-3.731-1.065-5.539-1.94c-0.604-1.03-1.517-3.256-1.111-5.058c0.06-0.267,0.149-0.519,0.261-0.75
	c0.758-1.542,2.749-2.486,5.917-2.81c0.669-0.067,1.455-0.061,2.473,0.059c2.549,3.875,5.628,7.385,9.153,10.432L131.865,395.031z
	 M147.219,385.302c-3.164,4.128-7.441,7.206-12.453,8.885c-3.283-2.631-6.194-5.655-8.653-8.988l-0.144-0.196l0.237,0.056
	c2.26,0.537,4.853,1.385,7.705,2.519c3.974,1.58,9.42-0.207,13.192-2.406L147.219,385.302z M152.375,365.716
	c0.442,3.142,0.311,6.307-0.388,9.407c-0.284,1.258-0.665,2.509-1.146,3.74c-3.389,4.484-10.434,8.218-15.904,6.431l-0.711-0.233
	c-3.888-1.271-7.246-2.371-10.181-2.915c-0.019-0.031-2.97-0.366-4.195-0.212c-4.081,0.516-6.755,1.833-7.916,4.209
	c-0.198,0.404-0.351,0.839-0.452,1.29c-0.232,1.032-0.212,2.185,0.06,3.425l0.048,0.223l-0.187-0.13
	c-5.708-3.96-9.686-10.147-10.917-16.976l-0.027-0.15l0.144,0.05c5.779,1.99,11.785,3.03,17.851,3.092c0,0,3.633-0.103,3.936-0.11
	c11.005-0.667,21.306-4.52,29.842-11.198l0.122-0.095L152.375,365.716z M143.549,349.484c4.029,3.5,6.874,8.085,8.227,13.259
	l0.015,0.055l-0.044,0.036c-8.733,7.224-19.921,11.351-31.5,11.619l-0.063,0.001l-0.022-0.059c-1.246-3.202-2.137-6.538-2.646-9.912
	l-0.008-0.058l0.048-0.031c1.78-1.151,4.243-3.31,5.858-7.06C126.269,350.708,133.781,345.419,143.549,349.484z"/>
<g>
	<path style="fill:#FF4500;" d="M286.864,363.085c0.022,0.385-0.139,0.767-0.43,1.02c-0.292,0.252-0.692,0.357-1.07,0.28
		l-9.045-1.854c-0.556-0.114-0.966-0.587-0.998-1.153l-0.225-3.813l-3.964,0.232c-0.688,0.041-1.282-0.486-1.323-1.175l-0.111-1.889
		l-0.138,0.124c-0.738,0.658-1.629,1.036-2.578,1.091c-0.672,0.04-1.348-0.093-2.006-0.395l-0.105-0.048l-0.02,0.115
		c-0.367,2.205-1.895,4.884-4.381,5.561l-17.245,4.677l-0.524,12.231l0.111-0.023c4.039-0.811,13.38-3.57,12.904-11.665
		c-0.04-0.688,0.488-1.281,1.176-1.322c0.688-0.041,1.283,0.487,1.322,1.175c0.588,10.011-10.661,13.902-16.693,14.563
		c-0.364,0.04-0.724-0.081-0.992-0.331c-0.231-0.217-0.374-0.523-0.393-0.842c-0.003-0.041-0.003-0.083-0.002-0.124l0.556-12.975
		l-4.054,1.099c-0.365,0.101-0.752,0.03-1.058-0.19c-0.308-0.223-0.497-0.566-0.52-0.943l-1.676-28.551l-4.285-1.244l2.072,35.319
		l4.925-2.082c0.308-0.13,0.649-0.132,0.96-0.006c0.309,0.126,0.55,0.363,0.68,0.672c0.056,0.133,0.09,0.272,0.099,0.415
		c0.03,0.526-0.276,1.018-0.763,1.224l-6.559,2.772c-0.375,0.158-0.803,0.124-1.147-0.09c-0.345-0.214-0.565-0.583-0.589-0.988
		l-2.281-38.856c-0.024-0.406,0.151-0.799,0.469-1.052c0.317-0.253,0.74-0.336,1.13-0.225l6.836,1.986
		c0.506,0.146,0.869,0.602,0.9,1.128l1.637,27.895l22.346-6.06c1.605-0.438,2.731-2.788,2.629-4.518l-0.235-3.998
		c-0.1-1.734-1.497-3.957-3.147-4.22l-18.634-2.979c-0.535-0.087-0.95-0.502-1.037-1.038l-2.288-14.17
		c-0.007-0.042-0.011-0.083-0.013-0.124c-0.019-0.318,0.087-0.641,0.291-0.885c0.237-0.277,0.581-0.44,0.946-0.442
		c6.068-0.051,17.695,2.498,18.283,12.508c0.023,0.381-0.127,0.745-0.408,1.001c-0.281,0.255-0.658,0.369-1.033,0.31l-10.466-1.642
		c-0.586-0.092-1.02-0.569-1.055-1.162c-0.006-0.089-0.002-0.179,0.014-0.27c0.105-0.68,0.748-1.146,1.429-1.04l8.801,1.379
		l-0.03-0.13c-1.644-6.673-10.288-8.078-13.929-8.373l-0.113-0.011l1.899,11.759l17.741,2.838c2.035,0.326,3.923,2.103,4.811,4.527
		l0.04,0.105l0.096-0.061c0.648-0.428,1.347-0.668,2.077-0.709c0.95-0.057,1.881,0.215,2.689,0.782l0.152,0.108l-0.111-1.89
		c-0.041-0.689,0.488-1.281,1.176-1.321l3.965-0.234l-0.224-3.813c-0.032-0.563,0.319-1.082,0.857-1.26l8.564-2.835
		c0.171-0.088,0.342-0.136,0.521-0.146c0.688-0.041,1.282,0.487,1.321,1.176l0.002,0.008l0.002-0.002L286.864,363.085z
		 M284.27,361.604l-1.279-21.822l-6.307,2.087l1.08,18.403L284.27,361.604z M274.948,355.066l-0.452-7.697l-2.714,0.157l0.452,7.698
		L274.948,355.066z M264.969,351.79c0.059,0.972,0.895,1.718,1.866,1.66c0.975-0.058,1.719-0.896,1.662-1.868
		c-0.059-0.972-0.896-1.716-1.868-1.658C265.656,349.98,264.913,350.817,264.969,351.79z"/>
	<path style="fill:#FF4500;" d="M252.787,357.155c0.035,0.61-0.372,1.152-0.968,1.291l-11.14,2.568
		c-0.326,0.074-0.662,0.019-0.945-0.158c-0.283-0.177-0.479-0.453-0.556-0.779c-0.017-0.07-0.025-0.141-0.029-0.21
		c-0.037-0.61,0.371-1.151,0.967-1.29l11.139-2.568c0.326-0.075,0.663-0.019,0.945,0.158c0.283,0.178,0.48,0.454,0.556,0.779
		C252.773,357.017,252.783,357.087,252.787,357.155z"/>
	<path style="fill:#FF4500;" d="M259.783,355.467c0.037,0.612-0.391,1.17-0.991,1.296l-2.84,0.598
		c-0.328,0.068-0.661,0.005-0.94-0.177c-0.279-0.183-0.473-0.465-0.541-0.791c-0.013-0.065-0.022-0.128-0.026-0.19
		c-0.036-0.61,0.392-1.167,0.994-1.293l2.839-0.597c0.326-0.068,0.66-0.005,0.94,0.177c0.281,0.183,0.474,0.464,0.541,0.791
		C259.771,355.343,259.78,355.406,259.783,355.467z"/>
</g>
<g>
	<path style="fill:#FF4500;" d="M400.319,254.344c-0.526-0.228-1.144-0.091-1.528,0.337c-0.146,0.161-3.628,3.95-9.564,3.47
		c-8.586-0.697-14.805,1.626-18.172,6.741c-2.5-5.592-8.262-8.887-16.847-9.584c-5.937-0.481-8.763-4.783-8.876-4.962
		c-0.309-0.487-0.895-0.725-1.454-0.587c-0.561,0.139-0.97,0.619-1.017,1.193l-3.854,47.482c-0.047,0.583,0.288,1.129,0.83,1.35
		l26.793,10.938c0.129,0.052,0.263,0.084,0.397,0.095c0.281,0.022,0.565-0.043,0.811-0.194c0.363-0.223,0.6-0.608,0.633-1.033
		l2.912-35.871c0.06-0.738-0.49-1.385-1.228-1.443c-0.737-0.061-1.386,0.489-1.444,1.227l-2.764,34.047l-24.189-9.875l3.521-43.404
		c1.781,1.58,4.655,3.383,8.71,3.711c8.689,0.706,13.848,4.109,15.339,10.122c0.215,0.862,0.846,1.216,1.361,1.258
		c0.518,0.042,1.197-0.205,1.55-1.024c2.439-5.69,8.08-8.219,16.769-7.514c4.055,0.33,7.182-0.984,9.193-2.256l-3.523,43.42
		l-23.565,5.844c-0.718,0.178-1.157,0.904-0.979,1.623c0.179,0.719,0.905,1.158,1.624,0.979l24.5-6.074
		c0.559-0.139,0.968-0.619,1.014-1.193l3.854-47.482C401.174,255.108,400.848,254.571,400.319,254.344z"/>
	<path style="fill:#FF4500;" d="M350.006,261.091c0.06-0.738-0.49-1.385-1.228-1.445c-0.738-0.059-1.385,0.49-1.444,1.228
		l-1.871,23.049c-0.06,0.738,0.49,1.385,1.228,1.443c0.738,0.061,1.385-0.488,1.444-1.227L350.006,261.091z"/>
	<path style="fill:#FF4500;" d="M346.587,286.651c-0.739-0.059-1.385,0.49-1.445,1.229l-0.273,3.363
		c-0.059,0.738,0.489,1.385,1.228,1.444c0.738,0.06,1.385-0.489,1.444-1.228l0.273-3.363
		C347.874,287.358,347.324,286.712,346.587,286.651z"/>
</g>
<g>
	<path style="fill:#FF4500;" d="M393.27,101.16l-53.23-14.417c-0.715-0.193-1.451,0.229-1.646,0.944l-11.241,41.505
		c-0.192,0.714,0.23,1.45,0.944,1.644l20.094,5.442l-1.301,4.804l-13.024,2.706c-0.607,0.127-1.049,0.653-1.067,1.272
		c-0.019,0.621,0.392,1.172,0.989,1.334l35.709,9.671c0.598,0.162,1.23-0.108,1.527-0.653c0.297-0.544,0.181-1.221-0.279-1.636
		l-9.879-8.909l1.301-4.804l19.162,5.189c0.716,0.194,1.451-0.229,1.645-0.943l11.241-41.506
		C394.407,102.089,393.984,101.353,393.27,101.16z M364.785,152.012l-24.885-6.739l8.34-1.733c0.495-0.103,0.889-0.475,1.021-0.962
		l1.517-5.599l8.8,2.383l-1.516,5.598c-0.133,0.488,0.02,1.008,0.396,1.346L364.785,152.012z M382.047,137.474l-45.549-12.335
		l7.858-29.01l40.451,10.955l-4.711,17.398c-0.193,0.715,0.228,1.451,0.943,1.645c0.715,0.194,1.451-0.229,1.643-0.943l5.063-18.692
		c0.193-0.715-0.228-1.451-0.944-1.645L343.762,93.19c-0.715-0.193-1.449,0.229-1.643,0.944l-8.558,31.596
		c-0.193,0.715,0.229,1.452,0.943,1.645l46.842,12.686l-0.609,2.253l-50.645-13.716l10.539-38.917l50.645,13.716L382.047,137.474z"
		/>
	<path style="fill:#FF4500;" d="M380.338,128.713c-0.715-0.193-1.451,0.229-1.645,0.944l-0.721,2.663
		c-0.193,0.714,0.229,1.451,0.943,1.644c0.715,0.193,1.451-0.229,1.645-0.943l0.721-2.663
		C381.475,129.644,381.053,128.907,380.338,128.713z"/>
</g>
<g>
	<path style="fill:#FF4500;" d="M113.121,239.322l-53.23-14.417c-0.715-0.193-1.451,0.229-1.646,0.944l-11.241,41.505
		c-0.192,0.714,0.231,1.45,0.944,1.643l20.094,5.442l-1.301,4.804l-13.024,2.706c-0.607,0.127-1.049,0.653-1.067,1.272
		c-0.018,0.621,0.392,1.172,0.989,1.334l35.709,9.671c0.598,0.162,1.23-0.108,1.527-0.653c0.297-0.543,0.181-1.221-0.279-1.636
		l-9.879-8.909l1.301-4.804l19.162,5.189c0.716,0.194,1.451-0.23,1.645-0.943l11.241-41.506
		C114.259,240.251,113.836,239.515,113.121,239.322z M84.637,290.174l-24.885-6.739l8.34-1.733c0.495-0.102,0.889-0.475,1.021-0.961
		l1.517-5.6l8.8,2.384l-1.516,5.599c-0.133,0.487,0.02,1.008,0.396,1.346L84.637,290.174z M101.898,275.636L56.35,263.301
		l7.857-29.01l40.451,10.955l-4.711,17.398c-0.193,0.715,0.228,1.45,0.943,1.645c0.715,0.194,1.451-0.229,1.644-0.943l5.063-18.692
		c0.193-0.715-0.229-1.451-0.944-1.645l-43.039-11.656c-0.715-0.193-1.449,0.229-1.644,0.944l-8.558,31.596
		c-0.193,0.715,0.228,1.451,0.943,1.645l46.842,12.686l-0.609,2.253l-50.644-13.716l10.539-38.917l50.645,13.716L101.898,275.636z"
		/>
	<path style="fill:#FF4500;" d="M100.189,266.875c-0.715-0.193-1.451,0.229-1.645,0.944l-0.721,2.663
		c-0.193,0.714,0.228,1.45,0.943,1.644c0.715,0.193,1.451-0.229,1.644-0.943l0.721-2.663
		C101.326,267.806,100.904,267.069,100.189,266.875z"/>
</g>
<g>
	<path style="fill:#FF4500;" d="M338.959,202.829c0.202-6.098,5.179-9.754,8.128-11.39c0.402-0.222,0.86-0.462,1.355-0.72
		c3.53-1.841,8.865-4.625,10.316-9.726c0.501-1.758,0.469-3.643-0.06-5.626c2.004,0.661,4.271,0.493,6.225-0.665
		c3.585-2.126,4.771-6.773,2.646-10.358c-2.126-3.585-6.773-4.773-10.357-2.647c-1.977,1.172-3.219,3.109-3.585,5.211
		c-1.455-1.351-3.05-2.247-4.784-2.64c-5.173-1.172-10.174,2.173-13.483,4.385c-0.466,0.31-0.894,0.6-1.284,0.844
		c-2.85,1.804-8.444,4.417-13.891,1.668c-5.738-2.893-9.912,0.346-10.086,0.489c-0.482,0.383-0.607,1.064-0.293,1.596l6.569,11.08
		c-1.947,2.132-1.841,6.272,0.435,10.109c2.274,3.836,5.854,5.917,8.66,5.23c0,0,1.814-0.497,2.114-1.281l-4.426-7.466
		c-0.02-0.033-0.051-0.051-0.072-0.081c-0.017-0.033-0.018-0.071-0.037-0.102l-10.483-17.682c1.226-0.556,3.573-1.162,6.503,0.316
		c6.537,3.298,13.037,0.296,16.329-1.786c0.405-0.257,0.853-0.555,1.336-0.879c2.958-1.977,7.427-4.966,11.562-4.028
		c2.364,0.537,4.473,2.345,6.268,5.373c0.03,0.049,0.064,0.092,0.095,0.141c0.006,0.013,0.006,0.029,0.015,0.042
		c1.795,3.029,2.37,5.746,1.706,8.077c-1.162,4.079-5.93,6.565-9.082,8.21c-0.516,0.271-0.992,0.519-1.411,0.753
		c-3.407,1.889-9.159,6.151-9.401,13.47c-0.11,3.284-1.766,5.05-2.842,5.857l-4.07-6.864c-0.354-0.597-1.145-0.727-1.734-0.36
		c-0.566,0.352-0.701,1.102-0.361,1.673l4.671,7.879c0.315,0.531,0.974,0.748,1.542,0.511
		C333.897,211.358,338.744,209.253,338.959,202.829z M320.924,192.001c0.02,0.031,0.051,0.05,0.072,0.081
		c0.016,0.034,0.018,0.069,0.037,0.103l3.031,5.113c-1.547-0.171-3.622-1.584-5.125-4.119c-1.503-2.535-1.748-5.034-1.156-6.475
		L320.924,192.001z M356.693,170.793c-1.432-2.413-0.632-5.539,1.781-6.969c2.411-1.43,5.537-0.631,6.968,1.782
		c1.431,2.413,0.631,5.538-1.78,6.968C361.25,174.005,358.123,173.206,356.693,170.793z"/>
	<path style="fill:#FF4500;" d="M349.628,170.722c0.126-0.672-0.317-1.319-0.989-1.444c-0.46-0.086-3.099-0.297-9.754,4.049
		c-6.42,4.194-9.852,4.735-10.748,4.802c-0.683,0.049-1.194,0.643-1.143,1.323c0.014,0.198,0.074,0.381,0.168,0.539
		c0.232,0.391,0.672,0.641,1.156,0.603c1.342-0.098,5.191-0.804,11.92-5.197c5.639-3.682,7.862-3.682,8.008-3.676
		C348.895,171.809,349.506,171.372,349.628,170.722z"/>
	<path style="fill:#FF4500;" d="M324.621,177.752l-2.742-0.412c-0.676-0.103-1.305,0.364-1.406,1.039
		c-0.044,0.294,0.018,0.577,0.158,0.813c0.184,0.311,0.499,0.536,0.881,0.594l2.743,0.413c0.675,0.099,1.306-0.366,1.405-1.042
		C325.762,178.481,325.298,177.852,324.621,177.752z"/>
</g>
<g>
	<path style="fill:#FF4500;" d="M264.987,58.764l-2.785,10.709c-0.735,2.832,0.969,5.738,3.803,6.476l47.596,12.375
		c0.214,0.057,0.439,0.058,0.653,0.007l8.27-2.002c0.462-0.112,0.832-0.462,0.969-0.92l2.28-7.636l4.827,3.926l-4.294,1.056
		c-0.72,0.177-1.159,0.902-0.983,1.621c0.177,0.722,0.902,1.159,1.623,0.982l6.908-1.697c0.494-0.122,0.877-0.513,0.988-1.009
		c0.076-0.338,0.018-0.684-0.152-0.973c-0.079-0.136-0.184-0.259-0.309-0.36l-8.474-6.892c-0.349-0.283-0.813-0.374-1.241-0.241
		c-0.428,0.131-0.761,0.468-0.889,0.898l-2.635,8.822l-7.192,1.74l-47.27-12.292c-1.402-0.364-2.249-1.804-1.884-3.207l2.785-10.708
		c0.176-0.68,0.607-1.25,1.214-1.606c0.604-0.354,1.314-0.453,1.992-0.277l9.329,2.427l-3.096,11.884
		c-0.184,0.706,0.231,1.431,0.934,1.628l4.008,1.132c0.347,0.099,0.719,0.053,1.032-0.128c0.311-0.179,0.54-0.477,0.63-0.825
		l3.107-11.972l29.345,7.631l-2.716,10.978l-17.426-4.5c-0.717-0.185-1.447,0.247-1.634,0.964c-0.185,0.716,0.247,1.447,0.963,1.633
		l18.738,4.838c0.346,0.089,0.714,0.036,1.022-0.147c0.307-0.183,0.527-0.481,0.613-0.829l2.758-11.147c0,0,1.264-3.44-0.363-4.049
		l-31.924-8.302c-0.345-0.09-0.711-0.038-1.018,0.143c-0.305,0.179-0.528,0.474-0.617,0.818l-3.1,11.943l-1.428-0.403l3.102-11.911
		c0.091-0.344,0.04-0.709-0.141-1.016l0,0c-0.18-0.307-0.475-0.528-0.818-0.618l-10.627-2.765c-1.371-0.356-2.803-0.157-4.025,0.561
		C266.214,56.24,265.345,57.391,264.987,58.764z"/>
	<path style="fill:#FF4500;" d="M293.13,75.54c-0.177-0.301-0.47-0.533-0.836-0.623l-4.895-1.201
		c-0.719-0.176-1.445,0.264-1.621,0.982c-0.177,0.72,0.264,1.444,0.983,1.622l4.895,1.201c0.719,0.176,1.445-0.265,1.621-0.983
		C293.361,76.184,293.301,75.831,293.13,75.54z"/>
</g>
<g>
	<path style="fill:#FF4500;" d="M77.496,350.06l10.03,4.674c2.653,1.234,5.819,0.084,7.056-2.571l20.768-44.577
		c0.095-0.2,0.136-0.421,0.125-0.642l-0.475-8.495c-0.027-0.475-0.304-0.902-0.73-1.119l-7.098-3.622l4.733-4.038l0.263,4.414
		c0.043,0.739,0.678,1.303,1.416,1.26c0.742-0.043,1.303-0.678,1.259-1.418l-0.421-7.103c-0.031-0.508-0.346-0.955-0.814-1.153
		c-0.318-0.136-0.669-0.141-0.984-0.026c-0.148,0.054-0.288,0.134-0.41,0.238l-8.309,7.09c-0.342,0.291-0.515,0.732-0.461,1.177
		c0.051,0.444,0.323,0.833,0.722,1.036l8.201,4.186l0.412,7.388l-20.627,44.272c-0.611,1.314-2.18,1.886-3.494,1.273l-10.029-4.674
		c-0.637-0.295-1.12-0.823-1.361-1.483c-0.24-0.658-0.209-1.374,0.087-2.01l4.072-8.737l11.129,5.191
		c0.661,0.309,1.449,0.031,1.77-0.624l1.837-3.737c0.16-0.324,0.181-0.697,0.061-1.038c-0.12-0.34-0.371-0.617-0.698-0.77
		l-11.214-5.218l12.806-27.484l10.307,4.653l-7.574,16.327c-0.311,0.672-0.018,1.469,0.653,1.781c0.67,0.31,1.468,0.018,1.78-0.653
		l8.143-17.555c0.15-0.325,0.164-0.696,0.039-1.033c-0.124-0.334-0.378-0.605-0.705-0.753l-10.466-4.726
		c0,0-3.156-1.864-4.048-0.374l-13.931,29.899c-0.151,0.322-0.166,0.691-0.043,1.026c0.121,0.332,0.37,0.605,0.693,0.755
		l11.187,5.206l-0.654,1.331l-11.155-5.201c-0.321-0.152-0.689-0.168-1.024-0.046l0,0c-0.334,0.121-0.605,0.371-0.756,0.693
		l-4.639,9.952c-0.598,1.285-0.661,2.729-0.176,4.062C75.235,348.397,76.21,349.46,77.496,350.06z"/>
	<path style="fill:#FF4500;" d="M99.079,325.41c-0.328,0.119-0.609,0.366-0.764,0.71l-2.065,4.598
		c-0.302,0.676-0.002,1.469,0.674,1.772c0.676,0.303,1.468,0.001,1.772-0.674l2.065-4.598c0.303-0.675,0.001-1.47-0.674-1.772
		C99.754,325.299,99.396,325.294,99.079,325.41z"/>
</g>
<g>
	<path style="fill:#FF4500;" d="M133.865,149.252l-4.309-4.824c-0.49-0.549-1.333-0.598-1.882-0.108
		c-0.548,0.49-0.596,1.333-0.105,1.882l3.421,3.832l-36.869,32.924l-24.62-27.569l36.87-32.924l3.553,3.979
		c0.489,0.547,1.332,0.596,1.881,0.106c0.548-0.49,0.595-1.334,0.106-1.88l-4.44-4.972c-0.491-0.549-1.332-0.596-1.881-0.106
		L66.734,154.29c-0.549,0.49-0.597,1.331-0.107,1.881l26.394,29.556c0.49,0.55,1.332,0.596,1.881,0.106l38.856-34.699
		C134.306,150.644,134.355,149.802,133.865,149.252z"/>
	<path style="fill:#FF4500;" d="M110.661,131.87l11.468,12.842c0.49,0.548,1.332,0.596,1.881,0.106l4.572-4.083
		c0.548-0.49,0.596-1.333,0.107-1.881l-11.468-12.842c-0.489-0.548-1.331-0.595-1.88-0.106l-4.572,4.084
		C110.219,130.479,110.172,131.322,110.661,131.87z M116.12,128.781l9.693,10.855l-2.584,2.307l-9.694-10.855L116.12,128.781z"/>
	<path style="fill:#FF4500;" d="M100.504,132.428c-0.936,0.836-1.018,2.278-0.182,3.214c0.836,0.936,2.279,1.019,3.214,0.183
		c0.937-0.836,1.017-2.279,0.182-3.215C102.883,131.674,101.44,131.593,100.504,132.428z"/>
	<path style="fill:#FF4500;" d="M121.015,153.396l-12.525-14.026c-0.49-0.55-1.333-0.597-1.881-0.107
		c-0.549,0.49-0.597,1.333-0.105,1.883l12.524,14.025c0.489,0.548,1.332,0.596,1.88,0.106
		C121.456,154.788,121.504,153.944,121.015,153.396z"/>
	<path style="fill:#FF4500;" d="M96.649,138.923c-0.836-0.936-2.278-1.017-3.214-0.181c-0.936,0.836-1.019,2.278-0.183,3.214
		c0.836,0.936,2.28,1.018,3.216,0.183C97.404,141.303,97.485,139.859,96.649,138.923z"/>
	<path style="fill:#FF4500;" d="M113.944,159.71l-12.524-14.025c-0.49-0.549-1.333-0.598-1.881-0.108
		c-0.549,0.49-0.597,1.332-0.106,1.882l12.524,14.026c0.49,0.548,1.333,0.596,1.881,0.105
		C114.387,161.1,114.434,160.258,113.944,159.71z"/>
	<path style="fill:#FF4500;" d="M89.579,145.236c-0.836-0.936-2.278-1.017-3.214-0.181c-0.937,0.836-1.019,2.279-0.183,3.215
		c0.836,0.936,2.28,1.019,3.216,0.182C90.334,147.616,90.415,146.172,89.579,145.236z"/>
	<path style="fill:#FF4500;" d="M106.874,166.023L94.35,151.998c-0.491-0.549-1.333-0.597-1.882-0.107
		c-0.549,0.49-0.596,1.333-0.105,1.881l12.524,14.026c0.49,0.548,1.332,0.597,1.88,0.106
		C107.316,167.414,107.364,166.572,106.874,166.023z"/>
	<path style="fill:#FF4500;" d="M82.508,151.55c-0.836-0.936-2.278-1.017-3.214-0.181c-0.937,0.836-1.018,2.277-0.183,3.213
		c0.836,0.936,2.279,1.019,3.215,0.184C83.263,153.93,83.344,152.486,82.508,151.55z"/>
	<path style="fill:#FF4500;" d="M99.804,172.336L87.28,158.311c-0.491-0.549-1.333-0.597-1.882-0.107
		c-0.548,0.49-0.596,1.332-0.105,1.881l12.524,14.026c0.49,0.548,1.332,0.596,1.88,0.107
		C100.246,173.727,100.294,172.885,99.804,172.336z"/>
</g>
<g>
	<path style="fill:#FF4500;" d="M291.768,400.79c-5.444-8.836-17.061-11.597-25.896-6.152c-0.631,0.387-0.828,1.213-0.44,1.844
		l18.34,29.768c0.005,0.004,0.006,0.011,0.01,0.016c0.389,0.63,1.214,0.825,1.844,0.439c0.066-0.042,0.127-0.087,0.185-0.138
		C294.491,421.074,297.172,409.561,291.768,400.79z M268.446,396.265c7.405-3.76,16.606-1.262,21.038,5.932
		c4.432,7.193,2.524,16.537-4.162,21.458L268.446,396.265z"/>
	<path style="fill:#FF4500;" d="M293.037,436.887c-0.634-1.022-1.85-0.436-1.85-0.436l-11.707,7.213l-3.575-5.804l2.387-1.471
		c0.63-0.388,0.827-1.214,0.439-1.844c-0.389-0.631-1.215-0.826-1.845-0.438l-2.387,1.469l-6.125-9.94l2.387-1.471
		c0.63-0.389,0.827-1.214,0.439-1.845c-0.389-0.631-1.215-0.826-1.845-0.438l-2.387,1.471l-6.125-9.942l2.386-1.47
		c0.631-0.389,0.828-1.215,0.44-1.845c-0.389-0.63-1.215-0.826-1.845-0.439l-2.386,1.471l-6.126-9.941l2.388-1.47
		c0.629-0.389,0.826-1.215,0.438-1.846c-0.389-0.631-1.215-0.825-1.844-0.439l-2.388,1.47l-3.956-6.421l10.57-6.513l1.837,2.982
		c0.389,0.629,1.214,0.826,1.844,0.439l0.421-0.26c11.836-7.292,27.4-3.595,34.691,8.241c7.292,11.835,3.596,27.398-8.242,34.69
		c0,0-1.576,0.825-0.858,2.103c0.884,1.57,2.347,0.121,2.98-0.274c13.268-8.32,16.322-25.071,8.403-37.926
		c-7.919-12.853-24.653-17.03-37.652-9.551l-1.844-2.993c-0.388-0.63-1.214-0.827-1.845-0.439l-12.853,7.918
		c-0.631,0.39-0.826,1.215-0.439,1.845l32.939,53.466c0.388,0.63,1.215,0.825,1.845,0.436l12.853-7.918
		C293.228,438.343,293.551,437.713,293.037,436.887z"/>
</g>
<g>
	<path style="fill:#FF4500;" d="M260.538,198.119c3.838-9.643-0.882-20.61-10.525-24.448c-0.687-0.275-1.467,0.06-1.741,0.748
		l-12.932,32.484c0,0.006-0.005,0.011-0.007,0.017c-0.273,0.688,0.063,1.466,0.749,1.741c0.073,0.028,0.145,0.05,0.221,0.067
		C245.891,212.413,256.728,207.69,260.538,198.119z M250.245,176.708c7.438,3.696,10.927,12.569,7.802,20.419
		c-3.126,7.85-11.76,11.898-19.7,9.471L250.245,176.708z"/>
	<path style="fill:#FF4500;" d="M232.337,220.686c0.442-1.119-0.754-1.744-0.754-1.744l-12.775-5.086l2.521-6.333l2.605,1.037
		c0.687,0.274,1.467-0.061,1.741-0.749c0.274-0.688-0.063-1.468-0.75-1.741l-2.604-1.038l4.318-10.848l2.605,1.037
		c0.688,0.273,1.468-0.061,1.742-0.749c0.274-0.689-0.063-1.468-0.75-1.741l-2.605-1.037l4.319-10.849l2.604,1.037
		c0.688,0.274,1.469-0.061,1.742-0.749c0.273-0.688-0.063-1.468-0.75-1.742l-2.604-1.036l4.318-10.849l2.604,1.038
		c0.687,0.272,1.468-0.063,1.742-0.751c0.274-0.689-0.063-1.467-0.749-1.741l-2.605-1.038l2.79-7.007l11.535,4.592l-1.296,3.254
		c-0.272,0.687,0.062,1.467,0.749,1.741l0.46,0.183c12.915,5.142,19.241,19.836,14.099,32.751
		c-5.141,12.915-19.833,19.241-32.75,14.098c0,0-1.603-0.771-2.2,0.567c-0.732,1.646,1.304,1.955,1.999,2.227
		c14.595,5.677,29.858-1.873,35.443-15.9c5.584-14.026-1.056-29.945-14.816-35.908l1.3-3.266c0.274-0.687-0.061-1.468-0.749-1.742
		l-14.025-5.584c-0.689-0.273-1.468,0.063-1.742,0.749l-23.228,58.344c-0.274,0.687,0.063,1.467,0.751,1.74l14.025,5.585
		C231.283,221.71,231.981,221.592,232.337,220.686z"/>
</g>
<g>
	<path style="fill:#FF4500;" d="M160.648,124.261c-0.41,0.617-0.243,1.449,0.375,1.86l12.313,8.201
		c2.345,1.561,5.524,0.923,7.086-1.422l18.038-27.084c1.562-2.346,0.926-5.523-1.419-7.086L157.505,72.4
		c-2.346-1.562-5.523-0.923-7.086,1.421l-18.038,27.085c-1.562,2.345-0.925,5.523,1.419,7.084l22.219,14.797
		c0.616,0.41,1.448,0.245,1.858-0.371c0.411-0.617,0.243-1.45-0.373-1.86l-22.218-14.797c-1.114-0.741-1.416-2.253-0.674-3.368
		l18.039-27.084c0.742-1.115,2.254-1.419,3.367-0.676l39.537,26.332c1.114,0.743,1.416,2.252,0.673,3.368l-18.038,27.084
		c-0.742,1.116-2.254,1.419-3.368,0.676l-12.315-8.202C161.892,123.479,161.059,123.646,160.648,124.261z"/>
	<path style="fill:#FF4500;" d="M163.118,122.398l10.85,7.226c0.617,0.41,1.449,0.244,1.86-0.372l17.497-26.271
		c0.41-0.617,0.243-1.449-0.373-1.858L182.1,93.895c-0.616-0.409-1.448-0.243-1.858,0.373l-17.497,26.271
		C162.335,121.154,162.501,121.987,163.118,122.398z M165.72,120.91l16.01-24.04l8.618,5.74l-16.01,24.039L165.72,120.91z"/>
	<path style="fill:#FF4500;" d="M170.294,94.391c0.616,0.411,1.448,0.245,1.859-0.372l0.757-1.137
		c0.411-0.617,0.244-1.448-0.373-1.859l-2.374-1.583c-0.616-0.41-1.449-0.244-1.86,0.373l-0.757,1.138
		c-0.41,0.616-0.244,1.449,0.373,1.858L170.294,94.391z"/>
	<path style="fill:#FF4500;" d="M163.537,104.539c0.616,0.411,1.448,0.245,1.859-0.373l0.758-1.137
		c0.41-0.617,0.243-1.449-0.373-1.859l-2.375-1.582c-0.616-0.41-1.449-0.243-1.86,0.373l-0.756,1.137
		c-0.412,0.616-0.244,1.449,0.372,1.86L163.537,104.539z"/>
	<path style="fill:#FF4500;" d="M156.779,114.685c0.617,0.41,1.448,0.244,1.859-0.373l0.758-1.138
		c0.411-0.616,0.243-1.448-0.374-1.859l-2.375-1.581c-0.615-0.41-1.447-0.245-1.858,0.372l-0.757,1.137
		c-0.411,0.617-0.244,1.448,0.373,1.859L156.779,114.685z"/>
	<path style="fill:#FF4500;" d="M161.827,87.143l0.757-1.139c0.41-0.616,0.244-1.448-0.373-1.858l-2.377-1.582
		c-0.616-0.411-1.448-0.244-1.858,0.372l-0.757,1.138c-0.411,0.616-0.244,1.448,0.372,1.86l2.378,1.582
		C160.584,87.924,161.416,87.758,161.827,87.143z"/>
	<path style="fill:#FF4500;" d="M155.069,97.288l0.758-1.137c0.411-0.616,0.243-1.449-0.372-1.859l-2.376-1.583
		c-0.617-0.411-1.448-0.244-1.859,0.372l-0.758,1.138c-0.41,0.616-0.243,1.449,0.372,1.857l2.377,1.584
		C153.826,98.071,154.658,97.906,155.069,97.288z"/>
	<path style="fill:#FF4500;" d="M148.311,107.434l0.759-1.136c0.409-0.616,0.243-1.449-0.373-1.86l-2.377-1.581
		c-0.616-0.412-1.448-0.245-1.858,0.372l-0.758,1.137c-0.411,0.616-0.244,1.45,0.373,1.859l2.376,1.582
		C147.07,108.218,147.902,108.051,148.311,107.434z"/>
</g>
<g>
	<path style="fill:#FF4500;" d="M67.979,216.28c1.977,4.326,7.105,6.237,11.43,4.262c0.027-0.013,0.055-0.026,0.083-0.042
		l30.247-16.432c1.142-0.563,1.972-0.986,2.548-1.418c0.853,0.636,1.802,1.158,2.832,1.542c4.524,1.689,11.501,0.927,17.52-6.271
		c2.45-2.927,4.684-3.358,6.163-3.644c0.979-0.189,1.993-0.384,2.43-1.397c0.52-1.21-0.179-2.502-2.164-5.623
		c-1.716-2.7-4.152-4.651-7.236-5.802c-6.948-2.591-14.737-0.331-16.918,0.667c-3.602,1.645-5.997,4.222-6.928,7.455
		c-0.301,1.044-0.44,2.143-0.425,3.268c-0.001,0.033,0.003,0.066,0.005,0.099c0.017,0.887,0.138,1.784,0.347,2.684
		c0.12,0.653,0.324,1.398,0.699,2.219l0.126,0.297c0.015,0.031,0.027,0.055,0.043,0.085c0.024,0.055,0.042,0.11,0.067,0.163
		c0.39,0.855,0.891,1.638,1.469,2.354c-0.543,0.319-1.393,0.738-1.811,0.945l-30.251,16.434c-2.974,1.33-6.482,0.011-7.838-2.957
		c-0.659-1.444-0.719-3.059-0.163-4.547c0.549-1.473,1.635-2.647,3.06-3.311l29.076-10.922c0.691-0.261,1.043-1.033,0.784-1.727
		c-0.263-0.692-1.034-1.044-1.727-0.784l-29.12,10.94c-0.029,0.011-0.058,0.023-0.087,0.035c-2.095,0.958-3.694,2.674-4.499,4.832
		C66.937,211.841,67.022,214.184,67.979,216.28z M116.029,184.56c2.413-1.103,9.223-2.697,14.867-0.592
		c2.525,0.94,4.515,2.533,5.911,4.727c0.36,0.566,1.303,2.049,1.712,2.906c-0.075,0.016-0.151,0.03-0.224,0.043
		c-1.625,0.313-4.653,0.896-7.712,4.556c-5.122,6.126-10.861,6.849-14.526,5.481c-1.286-0.479-2.407-1.239-3.301-2.209
		c-0.099-0.14-0.201-0.275-0.301-0.404c-0.366-0.475-0.817-1.066-1.226-1.936c-0.234-0.525-0.427-1.059-0.58-1.591
		c-0.026-0.107-0.059-0.215-0.077-0.313c-0.006-0.024-0.011-0.047-0.016-0.067c-0.089-0.476-0.122-0.9-0.148-1.277
		c-0.029-0.415-0.061-0.813-0.163-1.191c-0.001-0.821,0.102-1.621,0.32-2.375C111.281,187.826,113.119,185.888,116.029,184.56z"/>
	<path style="fill:#FF4500;" d="M99.279,203.335c0.341,0.654,1.153,0.909,1.811,0.567l4.025-2.102
		c0.655-0.343,0.91-1.153,0.566-1.81c-0.158-0.305-0.419-0.522-0.718-0.634c-0.344-0.128-0.74-0.115-1.09,0.067l-4.025,2.102
		C99.19,201.869,98.937,202.679,99.279,203.335z"/>
	<path style="fill:#FF4500;" d="M95.639,203.725l-18.863,9.861c-0.657,0.342-0.911,1.152-0.568,1.808
		c0.346,0.658,1.155,0.91,1.81,0.567l18.862-9.859c0.657-0.342,0.91-1.153,0.567-1.809c-0.16-0.306-0.421-0.523-0.718-0.635
		C96.384,203.529,95.99,203.543,95.639,203.725z"/>
</g>
<path style="fill:#FF4500;" d="M153.145,131.564l-18.102,7.308c-0.355,0.144-0.632,0.429-0.761,0.793
	c-0.129,0.36-0.097,0.759,0.087,1.095c0.089,0.163,8.927,16.324,9.186,22.572c0.085,2.059-2.173,8.109-3.611,11.406
	c-0.001,0.005-0.003,0.008-0.004,0.011c-0.24,0.566-0.064,1.223,0.426,1.594c0.102,0.077,10.326,7.815,13.456,10.46
	c3.931,3.327,15.112,13.69,15.224,13.796c0.38,0.352,0.93,0.454,1.411,0.261c0.336-0.135,0.597-0.396,0.734-0.72
	c0.059-0.14,0.096-0.288,0.104-0.443c0.009-0.148,0.894-14.839,1.427-19.785c0.46-4.277,2.584-17.546,2.605-17.679
	c0.101-0.628-0.253-1.238-0.846-1.465c-3.275-1.247-8.969-3.774-10.306-5.243c-0.779-0.855-2.076-2.743-3.829-6.878
	c-0.288-0.682-1.075-1-1.756-0.711c-0.682,0.287-1,1.074-0.712,1.757c1.526,3.599,2.978,6.17,4.315,7.639
	c1.832,2.013,7.825,4.547,10.317,5.545c-0.52,3.276-2.059,13.074-2.454,16.748c-0.4,3.714-0.977,12.53-1.264,17.09
	c-3.455-3.189-10.27-9.444-13.241-11.957c-2.687-2.273-10.201-7.997-12.736-9.921c1.044-2.506,3.535-8.804,3.419-11.614
	c-0.242-5.814-6.616-18.302-8.802-22.423l15.393-6.214c0.664,2.003,1.947,5.868,3.05,9.168l-7.167,2.894
	c-0.686,0.277-1.019,1.058-0.741,1.745l7.09,17.566c-2.169,1.532-3.091,4.406-2.055,6.971c1.208,2.992,4.627,4.445,7.621,3.238
	c1.498-0.604,2.608-1.762,3.195-3.142c0.585-1.38,0.647-2.983,0.043-4.481c-0.478-1.183-1.305-2.154-2.39-2.811
	c-0.632-0.385-1.457-0.182-1.84,0.452c-0.389,0.628-0.182,1.458,0.453,1.84c0.585,0.354,1.032,0.882,1.292,1.523
	c0.654,1.622-0.133,3.477-1.755,4.132c-1.624,0.656-3.478-0.133-4.132-1.755c-0.656-1.622,0.131-3.477,1.756-4.133
	c0.686-0.276,1.018-1.058,0.741-1.745c0-0.001-0.002-0.001-0.003-0.003c0-0.001,0-0.001,0-0.003l-7.028-17.41l7.095-2.865
	c0.658-0.265,0.994-0.998,0.769-1.668c-1.616-4.826-3.898-11.712-3.897-11.713c-0.117-0.351-0.373-0.639-0.709-0.794
	C153.874,131.435,153.489,131.425,153.145,131.564z"/>
<g>
	<path style="fill:#FF4500;" d="M253.088,92.766c-1.535,3.928-1.449,8.22,0.244,12.084c1.692,3.864,4.787,6.837,8.717,8.373
		c3.928,1.536,8.22,1.449,12.083-0.244c2.594-1.136,4.772-2.915,6.398-5.144l5.52,2.157l23.071,10.95
		c0.029,0.013,0.059,0.026,0.088,0.037c3.188,1.246,6.797-0.334,8.043-3.522c0.604-1.545,0.57-3.233-0.096-4.752
		c-0.665-1.52-1.883-2.689-3.428-3.292c-0.029-0.012-0.058-0.021-0.087-0.032l-19.841-6.211c-0.705-0.221-1.457,0.172-1.68,0.879
		c-0.222,0.706,0.174,1.458,0.88,1.68l19.792,6.196c1.731,0.699,2.643,2.811,1.963,4.556c-0.704,1.797-2.729,2.696-4.531,2.018
		l-21.936-10.411l1.515-3.876c0.129-0.331,0.121-0.7-0.021-1.026c-0.143-0.325-0.409-0.581-0.74-0.71l-5.567-2.175
		c0.316-2.741-0.078-5.526-1.215-8.121c-1.691-3.864-4.787-6.837-8.715-8.372C265.435,80.636,256.258,84.656,253.088,92.766z
		 M286.817,104.483l-0.993,2.542l-3.781-1.478l0.993-2.541L286.817,104.483z M272.568,86.303c3.262,1.274,5.832,3.744,7.236,6.951
		c1.405,3.207,1.477,6.771,0.203,10.032c-1.275,3.261-3.744,5.832-6.951,7.237c-3.208,1.404-6.771,1.477-10.033,0.202
		c-3.261-1.275-5.83-3.743-7.235-6.951c-1.405-3.208-1.478-6.771-0.202-10.033C258.217,87.009,265.836,83.672,272.568,86.303z"/>
	<path style="fill:#FF4500;" d="M257.448,94.47c-1.08,2.764-1.02,5.783,0.171,8.502c1.191,2.718,3.369,4.811,6.133,5.891
		c2.764,1.08,5.783,1.02,8.502-0.171c2.719-1.191,4.811-3.369,5.891-6.133c1.076-2.751,1.006-5.814-0.173-8.508
		c-0.092-0.21-0.19-0.416-0.295-0.62c-0.316-0.616-1.073-0.86-1.69-0.543c-0.615,0.316-0.869,1.073-0.541,1.69
		c1.121,2.19,1.26,4.771,0.361,7.067c-0.836,2.14-2.455,3.826-4.559,4.748c-2.105,0.922-4.442,0.969-6.583,0.132
		c-2.139-0.836-3.824-2.456-4.746-4.56c-0.922-2.104-0.969-4.442-0.133-6.58c0.837-2.141,2.457-3.827,4.561-4.749
		c2.105-0.922,4.442-0.968,6.582-0.131c0.645,0.251,1.373-0.067,1.625-0.712c0.252-0.646-0.066-1.373-0.711-1.626
		c-2.765-1.08-5.783-1.02-8.503,0.171C260.62,89.528,258.529,91.707,257.448,94.47z"/>
</g>
<g>
	<path style="fill:#FF4500;" d="M420.56,143.119c-0.118-0.045-0.243-0.078-0.376-0.089l-25.007-1.842
		c-0.575-0.042-1.111,0.287-1.334,0.818l-2.789,6.638c-0.287,0.683,0.034,1.468,0.716,1.755c0.683,0.287,1.469-0.034,1.757-0.717
		l2.415-5.749l17.362,1.278c-2.467,1.5-4.506,3.751-5.707,6.61c-2.463,5.861-0.742,12.508,4.051,16.453
		c-1.947,1.674-2.455,3.951-2.372,5.804c-6.091-0.664-12.159,2.688-14.651,8.616c-1.175,2.8-1.374,5.765-0.77,8.526l-12.978-11.431
		l2.414-5.746c0.287-0.683-0.035-1.469-0.717-1.755c-0.683-0.287-1.469,0.033-1.755,0.717l-2.788,6.634
		c-0.223,0.532-0.084,1.145,0.35,1.526l18.818,16.572c0.012,0.009,0.025,0.015,0.036,0.023c1.349,1.485,3.021,2.716,4.987,3.543
		c7.227,3.035,15.576-0.372,18.611-7.598c3.036-7.227-0.374-15.575-7.598-18.611c-0.398-0.167-0.803-0.307-1.205-0.435
		c-0.214-1.229-0.272-3.797,2.553-5.118c0.312-0.146,0.545-0.4,0.668-0.695c0.142-0.335,0.146-0.73-0.022-1.087
		c-0.123-0.266-0.334-0.449-0.571-0.581c-0.053-0.048-0.106-0.094-0.17-0.134c-4.745-3.024-6.603-8.99-4.421-14.187
		c2.463-5.861,9.237-8.629,15.1-6.165c5.861,2.463,8.629,9.237,6.168,15.1c-2.115,5.03-7.527,7.91-12.866,6.85
		c-0.728-0.143-1.429,0.329-1.577,1.055c-0.145,0.726,0.328,1.431,1.055,1.576c6.586,1.307,13.254-2.243,15.859-8.441
		c3.035-7.226-0.375-15.574-7.6-18.609C424.362,143.449,422.443,143.098,420.56,143.119z M418.363,192.667
		c-2.463,5.863-9.239,8.629-15.101,6.165c-5.863-2.463-8.628-9.236-6.165-15.1c2.463-5.862,9.236-8.627,15.1-6.165
		C418.059,180.033,420.826,186.805,418.363,192.667z"/>
	<path style="fill:#FF4500;" d="M398.076,186.331c-0.883,4.541,1.576,9.141,5.846,10.934c0.682,0.286,1.468-0.034,1.755-0.717
		c0.287-0.683-0.035-1.468-0.718-1.755c-3.106-1.305-4.894-4.648-4.25-7.951c0.14-0.726-0.334-1.431-1.061-1.572
		C398.92,185.129,398.219,185.601,398.076,186.331z"/>
	<path style="fill:#FF4500;" d="M414.271,162.747c0.234-0.153,0.404-0.364,0.504-0.603c0.166-0.396,0.139-0.866-0.113-1.253
		c-0.513-0.785-0.862-1.643-1.043-2.555c-0.141-0.726-0.846-1.198-1.573-1.056c-0.727,0.142-1.2,0.847-1.057,1.573
		c0.247,1.251,0.725,2.431,1.428,3.503C412.822,162.976,413.653,163.151,414.271,162.747z"/>
</g>
<g>
	<path style="fill:#FF4500;" d="M346.566,215.282c-0.026,0.047-0.049,0.096-0.069,0.146c-2.148,4.524-2.874,9.763-1.716,15.02
		c1.943,8.838,8.684,15.4,16.883,17.573c0.06,0.021,0.122,0.036,0.185,0.048c3.427,0.878,7.101,0.996,10.784,0.185
		c3.955-0.87,7.453-2.701,10.308-5.191c0.062-0.047,0.118-0.097,0.169-0.152c6.121-5.447,9.212-13.955,7.33-22.509
		c-2.771-12.588-15.266-20.576-27.854-17.805C355.313,204.196,349.581,209.046,346.566,215.282z M372.057,245.635
		c-3.117,0.686-6.227,0.626-9.145-0.059c-0.514-0.755-1.673-2.651-2.205-5.069v-0.001c-0.4-1.816,0.041-3.773,1.178-5.233
		c0.973-1.247,2.322-1.959,3.798-2.002c1.887-0.056,3.107,0.269,3.843,1.024c0.914,0.937,1.301,2.795,1.15,5.521
		c-0.023,0.404,0.064,1.004,0.604,1.571c1.109,1.164,4.133,1.647,6.873,1.84C376.308,244.321,374.264,245.149,372.057,245.635z
		 M387.82,220.977c0.652,2.966,0.625,5.925,0.031,8.719c-0.031,0.011-1.264,4.058-1.781,5.039c-1.123,2.221-2.636,4.237-4.478,5.931
		c-3.668-0.017-7.276-0.468-8.225-1.022c0.147-3.43-0.467-5.73-1.922-7.221c-1.295-1.329-3.151-1.911-5.842-1.832
		c-2.289,0.068-4.36,1.145-5.832,3.033c-1.625,2.083-2.253,4.871-1.684,7.458l0.001,0.003c0.265,1.204,0.656,2.292,1.068,3.219
		c-5.774-2.593-10.296-7.788-11.759-14.431c-0.757-3.442-0.603-6.874,0.295-10.049c0.793,1.806,1.959,3.945,3.521,5.495
		c1.633,1.619,3.5,2.585,5.398,2.795c1.866,0.206,3.629-0.376,4.841-1.598c1.403-1.418,1.588-2.926,1.784-4.521
		c0.226-1.84,0.507-4.13,2.888-7.531c0.787-1.124,1.766-1.746,2.991-1.904c2.622-0.337,5.685,1.448,7.343,2.597
		c-0.881,0.974-1.94,2.518-2.292,4.58c-0.444,2.595,0.325,5.292,2.286,8.02c1.936,2.691,4.14,4.074,6.232,4.673
		c0.831,0.238,1.717-0.173,2.043-0.972c0.274-0.667-0.235-1.351-0.938-1.511c-1.621-0.369-3.461-1.393-5.16-3.756
		c-1.52-2.11-2.135-4.12-1.826-5.972c0.422-2.556,2.494-4.058,2.51-4.069c0.34-0.238,0.551-0.62,0.571-1.035
		c0.02-0.413-0.153-0.816-0.47-1.086c-0.228-0.194-5.658-4.765-10.635-4.129c-1.99,0.255-3.623,1.273-4.852,3.026
		c-2.766,3.949-3.105,6.72-3.353,8.744c-0.182,1.481-0.301,2.226-1.028,2.96c-0.641,0.646-1.578,0.937-2.642,0.82
		c-1.271-0.141-2.621-0.863-3.803-2.035c-2.188-2.169-3.531-5.989-3.951-7.323c2.71-5.351,7.708-9.491,14.01-10.877
		C374.306,202.762,385.367,209.833,387.82,220.977z"/>
	<path style="fill:#FF4500;" d="M361.559,197.933c-8.412,1.852-15.42,7.353-19.223,15.092c-0.325,0.665-0.053,1.468,0.611,1.795
		c0.664,0.326,1.469,0.052,1.795-0.612c3.441-7.004,9.781-11.982,17.393-13.657c13.717-3.019,27.33,5.684,30.349,19.399
		c1.018,4.628,0.733,9.425-0.825,13.875c-0.244,0.699,0.123,1.463,0.822,1.708c0.699,0.245,1.463-0.123,1.709-0.821
		c1.574-4.499,1.959-9.316,1.154-14.018l2.748-0.605l2.313,10.502c0.158,0.723,0.873,1.18,1.597,1.021
		c0.723-0.159,1.181-0.874,1.02-1.598l-5.198-23.623c-0.159-0.723-0.874-1.18-1.597-1.02c-0.724,0.158-1.181,0.873-1.022,1.597
		l2.311,10.503l-2.734,0.602C390.891,203.67,376.279,194.693,361.559,197.933z"/>
</g>
<g>
	<path style="fill:#FF4500;" d="M265.298,251.919c0.476-4.191-0.709-8.317-3.336-11.617c-2.627-3.301-6.381-5.381-10.573-5.857
		c-4.189-0.476-8.316,0.708-11.616,3.335c-2.215,1.765-3.864,4.043-4.864,6.614l-5.889-0.669l-25.107-4.666
		c-0.032-0.005-0.063-0.01-0.094-0.012c-3.402-0.387-6.484,2.066-6.871,5.467c-0.188,1.648,0.277,3.27,1.311,4.568
		c1.033,1.299,2.511,2.117,4.159,2.304c0.03,0.004,0.061,0.006,0.092,0.008l20.77,0.914c0.738,0.032,1.364-0.54,1.397-1.28
		c0.033-0.74-0.542-1.365-1.281-1.398l-20.719-0.912c-1.853-0.232-3.276-2.039-3.065-3.899c0.22-1.918,1.946-3.306,3.862-3.112
		l23.873,4.435l-0.472,4.134c-0.039,0.354,0.064,0.709,0.285,0.987c0.221,0.277,0.543,0.457,0.897,0.497l5.939,0.675
		c0.396,2.729,1.492,5.319,3.256,7.537c2.626,3.301,6.381,5.38,10.572,5.855C256.475,266.81,264.314,260.57,265.298,251.919z
		 M229.691,249.246l0.308-2.712l4.034,0.458l-0.308,2.711L229.691,249.246z M248.126,263.162c-3.479-0.396-6.597-2.123-8.777-4.862
		c-2.18-2.739-3.164-6.167-2.77-9.645c0.396-3.48,2.122-6.597,4.862-8.778c2.741-2.18,6.167-3.164,9.646-2.769
		c3.479,0.396,6.595,2.122,8.776,4.863c2.181,2.739,3.165,6.166,2.768,9.644C261.816,258.799,255.309,263.978,248.126,263.162z"/>
	<path style="fill:#FF4500;" d="M260.646,251.391c0.335-2.949-0.499-5.852-2.348-8.175c-1.847-2.321-4.49-3.785-7.438-4.12
		c-2.948-0.335-5.851,0.498-8.173,2.347c-2.323,1.849-3.786,4.49-4.121,7.439c-0.335,2.934,0.518,5.877,2.35,8.179
		c0.141,0.178,0.29,0.353,0.443,0.523c0.463,0.514,1.258,0.557,1.774,0.092c0.513-0.464,0.564-1.261,0.088-1.773
		c-1.644-1.828-2.44-4.288-2.162-6.737c0.26-2.283,1.393-4.327,3.191-5.759c1.796-1.431,4.045-2.075,6.329-1.816
		c2.281,0.26,4.324,1.393,5.756,3.189c1.431,1.796,2.076,4.044,1.816,6.325c-0.259,2.285-1.393,4.33-3.189,5.761
		c-1.798,1.431-4.045,2.075-6.329,1.815c-0.688-0.078-1.31,0.416-1.388,1.104c-0.078,0.689,0.417,1.311,1.104,1.39
		c2.95,0.335,5.851-0.498,8.175-2.346C258.848,256.98,260.31,254.338,260.646,251.391z"/>
</g>
<g>
	<path style="fill:#FF4500;" d="M165.713,375.153c-3.374-0.464-5.83-3.662-5.373-6.984l0.969-7.653
		c0.404-3.576,1.736-6.185,4.071-7.955l38.729-29.367c1.221-0.927,2.73-1.322,4.249-1.113c1.518,0.209,2.865,0.997,3.79,2.219
		l6.336,8.354c0.926,1.221,1.321,2.729,1.112,4.247c-0.209,1.519-0.998,2.864-2.22,3.789l-34.019,25.751
		c-2.539,1.895-6.142,1.395-8.04-1.108l-3.394-4.478c-0.927-1.221-1.321-2.728-1.112-4.248c0.208-1.518,0.996-2.864,2.217-3.789
		l26.725-20.268c0.59-0.447,1.431-0.332,1.878,0.258c0.448,0.591,0.332,1.432-0.258,1.879l-26.725,20.266
		c-0.651,0.494-1.071,1.211-1.182,2.02c-0.111,0.809,0.099,1.612,0.592,2.263l3.395,4.478c1.011,1.334,2.938,1.596,4.294,0.585
		l34.011-25.744c0.651-0.493,1.071-1.21,1.182-2.019c0.111-0.808-0.099-1.611-0.592-2.261l-6.336-8.354
		c-0.987-1.302-2.982-1.576-4.283-0.588l-38.73,29.367c-1.719,1.303-2.71,3.311-3.029,6.137l-0.973,7.685
		c-0.256,1.865,1.178,3.717,3.069,3.976l7.365,0.954c2.902,0.461,4.984,0.047,6.787-1.32l31.459-23.855
		c0.59-0.447,1.431-0.332,1.878,0.258c0.447,0.59,0.331,1.432-0.259,1.878l-31.46,23.854c-2.398,1.82-5.186,2.412-8.787,1.839
		L165.713,375.153z"/>
</g>
<g>
	<path style="fill:#FF4500;" d="M247.735,62.802c0.195,3.036-0.354,5.212-1.631,6.472c-1.107,1.085-1.15,2.429-1.117,2.957
		c0.068,0.854,0.467,2.507,1.52,3.307c1.428,1.082,2.251,3.17,2.446,6.206c0.09,1.391,0.012,2.5-0.005,2.708
		c-0.017,0.176-0.065,0.347-0.145,0.494c-4.627,8.684-14.875,15.325-25.503,16.526c-7.299,0.824-13.372-1.088-17.101-5.386
		c-2.869-3.307-4.455-7.026-4.715-11.059c-0.177-2.751,0.272-5.584,1.335-8.429l0.048-0.129l-8.76,0.563
		c-0.585,0.038-1.116-0.326-1.292-0.886c-0.881-2.788-1.405-5.397-1.557-7.753c-0.633-9.841,5.349-12.489,5.604-12.596
		c0.319-0.136,0.685-0.134,1.001,0.005c0.318,0.139,0.568,0.404,0.686,0.73c0.821,2.256,1.339,4.457,1.54,6.539l0.178-0.001
		c0.25-3.136,1.335-6.171,3.227-9.018c3.149-4.742,8.928-7.416,16.271-7.534c10.693-0.167,21.708,5.107,27.41,13.125
		c0.099,0.14,0.168,0.297,0.206,0.468C247.427,60.327,247.647,61.428,247.735,62.802z M242.443,72.229
		c-0.036-1.056,0.16-3.078,1.879-4.77c0.697-0.683,1.015-2.321,0.875-4.494c-0.058-0.902-0.181-1.669-0.249-2.046
		c-5.293-7.259-15.391-12.009-25.143-11.856c-6.482,0.104-11.523,2.376-14.194,6.396c-2.107,3.174-3.064,6.54-2.841,10.004
		c0.26,4.036,2.079,7.311,3.14,8.903c0.124,0.186,0.197,0.402,0.211,0.623c0.014,0.222-0.03,0.444-0.129,0.644
		c-0.848,1.715-2.232,5.197-1.973,9.231c0.224,3.466,1.603,6.682,4.099,9.557c3.163,3.646,8.454,5.253,14.896,4.525
		c9.69-1.093,19.096-7.097,23.404-14.939c0.031-0.422,0.055-1.198-0.004-2.101c-0.139-2.17-0.665-3.754-1.444-4.345
		c-2.118-1.602-2.467-4.528-2.517-5.099l-0.004-0.04L242.443,72.229z M202.704,73.935l-0.064-0.123
		c-0.874-1.654-1.987-4.29-2.323-7.445l-0.179,0.003c-0.277,3.703-1.665,6.266-2.78,7.761l-0.116,0.155L202.704,73.935z
		 M193.794,68.24c0.1,1.542,0.38,3.225,0.832,5.005l0.042,0.164l0.111-0.127c1.195-1.346,3.151-4.356,2.827-9.402
		c-0.098-1.515-0.396-3.126-0.887-4.789l-0.041-0.139l-0.105,0.099C195.123,60.414,193.465,63.114,193.794,68.24z"/>
	<path style="fill:#FF4500;" d="M229.95,91.4c0.034,0.543-0.282,1.049-0.79,1.258c-12.837,5.254-19.396-3.331-19.461-3.419
		c-0.147-0.197-0.233-0.431-0.25-0.676c-0.027-0.432,0.164-0.843,0.509-1.101c0.562-0.418,1.357-0.303,1.775,0.256
		c0.223,0.291,5.569,7.047,16.465,2.588c0.649-0.266,1.394,0.044,1.658,0.694C229.91,91.13,229.941,91.266,229.95,91.4z"/>
</g>
<g>
	<path style="fill:#FF4500;" d="M189.577,307.409c-1.125-2.826-1.277-5.066-0.452-6.659c0.717-1.375,0.342-2.666,0.147-3.158
		c-0.329-0.79-1.22-2.24-2.468-2.674c-1.693-0.587-3.121-2.318-4.247-5.146c-0.516-1.295-0.785-2.374-0.833-2.576
		c-0.039-0.172-0.045-0.351-0.016-0.515c1.713-9.688,9.404-19.174,19.138-23.605c6.686-3.043,13.053-3.102,17.929-0.17
		c3.751,2.257,6.41,5.303,7.905,9.058c1.02,2.561,1.469,5.393,1.339,8.429l-0.006,0.138l8.156-3.246
		c0.544-0.218,1.163-0.035,1.503,0.442c1.701,2.378,3.006,4.697,3.879,6.891c3.646,9.162-1.223,13.531-1.432,13.712
		c-0.262,0.228-0.61,0.339-0.954,0.305c-0.346-0.033-0.666-0.209-0.878-0.482c-1.479-1.891-2.653-3.824-3.488-5.741l-0.169,0.057
		c0.732,3.06,0.639,6.28-0.278,9.573c-1.528,5.483-6.196,9.814-13.142,12.198c-10.117,3.467-22.223,1.859-30.126-4
		c-0.137-0.102-0.252-0.23-0.341-0.382C190.635,309.667,190.086,308.689,189.577,307.409z M191.692,296.808
		c0.361,0.993,0.8,2.976-0.311,5.118c-0.452,0.864-0.248,2.52,0.558,4.544c0.334,0.84,0.688,1.53,0.869,1.868
		c7.28,5.266,18.352,6.657,27.577,3.495c6.132-2.105,10.222-5.825,11.518-10.474c1.021-3.67,0.89-7.167-0.394-10.393
		c-1.496-3.757-4.238-6.309-5.74-7.494c-0.175-0.14-0.312-0.322-0.393-0.527c-0.083-0.207-0.109-0.433-0.077-0.653
		c0.276-1.893,0.515-5.633-0.98-9.389c-1.285-3.227-3.592-5.859-6.854-7.82c-4.136-2.489-9.664-2.38-15.566,0.306
		c-8.876,4.038-15.962,12.657-17.633,21.447c0.101,0.411,0.319,1.157,0.654,1.997c0.804,2.02,1.794,3.364,2.717,3.685
		c2.51,0.867,3.748,3.543,3.971,4.07l0.016,0.036L191.692,296.808z M228.954,282.89l0.099,0.098c1.343,1.302,3.217,3.464,4.513,6.36
		l0.169-0.059c-0.882-3.607-0.355-6.473,0.242-8.24l0.063-0.183L228.954,282.89z M239.188,285.548
		c-0.572-1.436-1.359-2.949-2.34-4.501l-0.09-0.144l-0.067,0.155c-0.72,1.649-1.649,5.117,0.221,9.815
		c0.562,1.411,1.344,2.851,2.326,4.28l0.082,0.119l0.07-0.126C240.346,293.402,241.087,290.321,239.188,285.548z"/>
	<path style="fill:#FF4500;" d="M197.641,274.711c-0.201-0.506-0.056-1.084,0.361-1.44c10.581-8.969,19.475-2.834,19.564-2.77
		c0.201,0.141,0.355,0.336,0.447,0.565c0.159,0.402,0.106,0.853-0.143,1.205c-0.405,0.571-1.197,0.707-1.768,0.305
		c-0.302-0.209-7.476-4.979-16.458,2.634c-0.535,0.453-1.339,0.389-1.791-0.147C197.762,274.956,197.69,274.836,197.641,274.711z"/>
</g>
<path style="fill:#FF4500;" d="M338.469,313.683c-0.73-0.42-1.646-0.317-2.316,0.193c-0.52,0.397-0.398,1.194,0.18,1.498
	c2.586,1.355,4.945,3.138,6.951,5.278c1.181,1.259,2.236,2.633,3.142,4.085c0.039,0.065,0.078,0.149,0.023,0.201
	c-0.056,0.052-0.138,0.008-0.2-0.034c-5.75-3.983-12.904-3.978-19.172,0.022c-1.31,0.835-2.68,1.433-4.09,1.788
	c-0.859,0.216-1.488-0.763-1.022-1.514c2.14-3.443,4.729-6.599,7.717-9.401c0.403-0.378,1.605-1.396,2.733-2.329
	c0.912-0.757,0.611-2.23-0.531-2.549c-9.373-2.612-19.852-0.419-27.455,6.708c-11.577,10.854-12.166,29.103-1.313,40.682
	c9.581,10.219,25.545,12.001,37.166,4.122c1.24-0.841,2.424-1.787,3.516-2.81c3.125-2.929,5.504-6.433,7.074-10.415
	c0.028-0.058,0.053-0.117,0.074-0.184c2.186-5.668,2.52-12.028,0.94-17.915c-0.006-0.032-0.016-0.063-0.041-0.143
	c-1.229-4.477-3.558-8.637-6.735-12.025C343.116,316.815,340.873,315.065,338.469,313.683z M312.626,315.013l0.013-0.029
	l0.031-0.016c5.02-2.425,10.826-3.186,16.352-2.143l0.18,0.032l-0.137,0.121c-0.367,0.325-0.73,0.656-1.086,0.99
	c-4.016,3.765-7.338,8.114-9.871,12.933l-0.031,0.058l-0.064-0.012c-0.717-0.121-1.138-0.268-1.146-0.271
	c-3.226-1.27-5.169-2.985-5.779-5.096c-0.911-3.148,1.371-6.278,1.395-6.311C312.536,315.197,312.582,315.116,312.626,315.013z
	 M301.492,325.361l-0.033-0.046l0.029-0.05c1.27-2.153,2.834-4.107,4.652-5.81c0.742-0.697,1.565-1.377,2.444-2.023l0.206-0.15
	l-0.066,0.245c-0.452,1.666-0.469,3.256-0.047,4.728c0.83,2.906,3.287,5.18,7.301,6.76c0.05,0.02,0.36,0.125,0.857,0.241
	l0.106,0.024l-0.045,0.1c-1.227,2.692-2.214,5.511-2.935,8.377l-0.03,0.128l-0.108-0.077
	C309.084,334.376,304.935,330.19,301.492,325.361z M314.258,362.977l-0.168-0.069c-3.49-1.435-6.568-3.558-9.148-6.309
	c-1.318-1.407-2.49-2.977-3.496-4.716c0.08-1.191,0.572-3.546,1.92-4.809c0.2-0.188,0.414-0.348,0.638-0.476
	c1.492-0.85,3.671-0.515,6.474,0.996c0.591,0.32,1.239,0.767,2.014,1.438c-0.065,4.637,0.513,9.27,1.721,13.77L314.258,362.977z
	 M332.426,363.544c-4.938,1.64-10.205,1.786-15.293,0.362c-1.24-4.02-1.952-8.156-2.116-12.296l-0.01-0.243l0.165,0.18
	c1.57,1.712,3.238,3.869,4.963,6.409c2.402,3.538,7.912,5.116,12.267,5.413L332.426,363.544z M347.685,350.228
	c-1.397,2.848-3.281,5.394-5.601,7.566c-0.94,0.883-1.958,1.704-3.048,2.453c-5.321,1.808-13.247,0.944-16.771-3.605l-0.459-0.591
	c-2.503-3.236-4.665-6.03-6.789-8.129c0.002-0.036-2.252-1.969-3.353-2.529c-3.664-1.865-6.619-2.275-8.913-0.962
	c-0.391,0.226-0.761,0.498-1.099,0.814c-0.771,0.724-1.4,1.689-1.873,2.868l-0.084,0.212l-0.082-0.213
	c-2.501-6.482-2.321-13.835,0.492-20.177l0.063-0.14l0.092,0.122c3.666,4.892,8.053,9.123,13.037,12.579c0,0,3.065,1.953,3.32,2.118
	c9.482,5.625,20.17,8.218,30.982,7.483l0.154-0.01L347.685,350.228z M349.493,331.842c1.369,5.158,1.15,10.549-0.635,15.589
	l-0.019,0.055l-0.057,0.005c-11.283,1.077-22.857-1.789-32.591-8.065l-0.052-0.035l0.013-0.06c0.766-3.351,1.901-6.61,3.376-9.689
	l0.023-0.053l0.059,0.002c2.12,0.045,5.369-0.358,8.811-2.555C334.506,323.153,343.691,322.994,349.493,331.842z"/>
<g>
	<path style="fill:#FF4500;" d="M256.5,222.194c-0.223-0.315-0.287-0.725-0.173-1.093c0.115-0.368,0.4-0.669,0.762-0.803
		l8.663-3.192c0.533-0.196,1.131-0.011,1.457,0.454l2.2,3.122l3.246-2.287c0.563-0.398,1.346-0.263,1.743,0.3l1.091,1.546
		l0.052-0.178c0.28-0.949,0.838-1.739,1.615-2.286c0.551-0.388,1.194-0.632,1.912-0.722l0.115-0.015l-0.044-0.108
		c-0.85-2.067-0.965-5.149,0.791-7.036l12.188-13.066l-6.002-10.67l-0.082,0.079c-3.006,2.818-9.488,10.087-4.816,16.715
		c0.396,0.563,0.26,1.346-0.303,1.743c-0.563,0.398-1.347,0.263-1.742-0.301c-5.777-8.197,1.73-17.434,6.508-21.175
		c0.287-0.226,0.658-0.313,1.017-0.242c0.311,0.063,0.593,0.248,0.777,0.509c0.024,0.033,0.046,0.069,0.067,0.104l6.367,11.318
		l2.865-3.07c0.258-0.278,0.623-0.422,1-0.396c0.379,0.027,0.721,0.218,0.939,0.528l16.476,23.378l4.297-1.202l-20.381-28.921
		l-3.087,4.366c-0.192,0.273-0.482,0.454-0.812,0.511c-0.33,0.056-0.66-0.019-0.933-0.213c-0.117-0.084-0.22-0.183-0.303-0.3
		c-0.304-0.431-0.302-1.01,0.003-1.442l4.113-5.813c0.234-0.331,0.616-0.528,1.022-0.528c0.406,0,0.787,0.198,1.021,0.53
		l22.422,31.816c0.234,0.333,0.293,0.759,0.156,1.141c-0.137,0.382-0.451,0.675-0.842,0.787l-6.857,1.916
		c-0.507,0.143-1.056-0.053-1.359-0.484l-16.097-22.84l-15.794,16.929c-1.133,1.219-0.85,3.809,0.148,5.225l2.308,3.273
		c0.999,1.421,3.358,2.573,4.898,1.927l17.405-7.291c0.5-0.208,1.072-0.075,1.428,0.335l9.414,10.835
		c0.028,0.032,0.054,0.065,0.077,0.098c0.184,0.261,0.264,0.59,0.219,0.905c-0.056,0.361-0.262,0.681-0.57,0.874
		c-5.13,3.242-16.353,7.206-22.13-0.99c-0.221-0.312-0.285-0.7-0.181-1.066c0.104-0.365,0.364-0.661,0.715-0.808l9.759-4.123
		c0.547-0.231,1.168-0.054,1.51,0.432c0.051,0.072,0.096,0.151,0.13,0.236c0.269,0.633-0.03,1.369-0.666,1.637l-8.206,3.468
		l0.095,0.095c4.915,4.804,13.001,1.441,16.25-0.228l0.102-0.05l-7.812-8.991l-16.572,6.941c-1.9,0.795-4.441,0.281-6.475-1.311
		l-0.09-0.069l-0.049,0.102c-0.326,0.705-0.792,1.277-1.391,1.697c-0.778,0.549-1.713,0.809-2.697,0.753l-0.187-0.011l1.091,1.547
		c0.398,0.563,0.261,1.346-0.303,1.742l-3.246,2.29l2.201,3.122c0.324,0.462,0.299,1.088-0.064,1.522l-5.783,6.924
		c-0.099,0.165-0.219,0.295-0.365,0.398c-0.563,0.397-1.347,0.262-1.742-0.303l-0.006-0.005l-0.001,0.002L256.5,222.194z
		 M259.484,222.085l12.592,17.869l4.259-5.098l-10.62-15.069L259.484,222.085z M270.852,222.727l4.442,6.302l2.223-1.564
		l-4.442-6.304L270.852,222.727z M281.06,220.249c-0.562-0.794-1.665-0.988-2.461-0.427c-0.798,0.563-0.988,1.667-0.427,2.464
		c0.561,0.794,1.665,0.986,2.461,0.424C281.43,222.15,281.619,221.047,281.06,220.249z"/>
	<path style="fill:#FF4500;" d="M288.583,209.269c-0.352-0.5-0.292-1.175,0.142-1.607l8.112-8.055
		c0.237-0.235,0.552-0.364,0.887-0.364c0.333,0.001,0.645,0.132,0.883,0.369c0.052,0.051,0.095,0.107,0.136,0.163
		c0.353,0.499,0.291,1.174-0.143,1.606l-8.111,8.055c-0.237,0.236-0.554,0.366-0.887,0.364c-0.334-0.002-0.647-0.133-0.883-0.37
		C288.668,209.379,288.622,209.325,288.583,209.269z"/>
	<path style="fill:#FF4500;" d="M283.527,214.392c-0.353-0.501-0.284-1.2,0.16-1.624l2.098-2.005
		c0.242-0.232,0.559-0.353,0.893-0.346c0.334,0.008,0.646,0.146,0.877,0.387c0.045,0.048,0.086,0.097,0.122,0.148
		c0.353,0.499,0.282,1.198-0.163,1.622l-2.098,2.003c-0.242,0.23-0.559,0.353-0.893,0.345c-0.334-0.007-0.646-0.145-0.876-0.387
		C283.603,214.491,283.563,214.441,283.527,214.392z"/>
</g>
<g>
	<path style="fill:#FF4500;" d="M188.405,156.365c-0.303-0.241-0.479-0.614-0.473-1c0.007-0.387,0.195-0.755,0.506-0.985
		l7.415-5.501c0.454-0.337,1.081-0.327,1.523,0.024l2.99,2.378l2.471-3.109c0.429-0.54,1.219-0.63,1.759-0.201l1.48,1.178v-0.186
		c0.002-0.988,0.315-1.904,0.907-2.649c0.419-0.527,0.969-0.94,1.632-1.232l0.106-0.047l-0.073-0.091
		c-1.397-1.743-2.374-4.668-1.22-6.973l8.02-15.967l-8.763-8.551l-0.057,0.099c-2.091,3.55-6.265,12.349,0.082,17.396
		c0.54,0.429,0.63,1.219,0.201,1.758c-0.43,0.54-1.219,0.629-1.759,0.201c-7.85-6.24-3.244-17.218,0.288-22.151
		c0.212-0.297,0.544-0.485,0.908-0.518c0.316-0.027,0.64,0.071,0.89,0.269c0.032,0.026,0.063,0.054,0.092,0.082l9.296,9.069
		l1.885-3.752c0.17-0.34,0.479-0.581,0.848-0.662c0.371-0.082,0.753,0.008,1.049,0.243l22.386,17.797l3.786-2.362l-27.694-22.017
		l-1.735,5.057c-0.108,0.316-0.334,0.572-0.634,0.719c-0.301,0.146-0.64,0.168-0.955,0.06c-0.137-0.048-0.263-0.115-0.374-0.204
		c-0.413-0.328-0.575-0.885-0.403-1.386l2.309-6.733c0.132-0.385,0.443-0.682,0.833-0.795c0.39-0.114,0.812-0.031,1.13,0.221
		l30.468,24.223c0.318,0.253,0.494,0.646,0.471,1.051c-0.024,0.404-0.243,0.774-0.587,0.99l-6.04,3.768
		c-0.448,0.28-1.027,0.247-1.441-0.081l-21.873-17.39l-10.391,20.69c-0.745,1.487,0.253,3.893,1.609,4.972l3.136,2.493
		c1.361,1.081,3.947,1.522,5.243,0.47l14.651-11.894c0.42-0.342,1.008-0.374,1.464-0.081l12.082,7.75
		c0.035,0.021,0.069,0.046,0.101,0.071c0.249,0.199,0.419,0.493,0.463,0.808c0.051,0.361-0.059,0.726-0.301,1
		c-4.01,4.553-13.665,11.516-21.515,5.275c-0.298-0.236-0.47-0.591-0.473-0.972c-0.002-0.38,0.165-0.736,0.46-0.977l8.204-6.701
		c0.46-0.376,1.105-0.38,1.57-0.011c0.069,0.055,0.134,0.118,0.191,0.188c0.436,0.534,0.356,1.324-0.178,1.76l-6.9,5.637
		l0.119,0.064c6.067,3.227,12.881-2.274,15.529-4.789l0.083-0.078l-10.027-6.431l-13.948,11.323c-1.601,1.3-4.184,1.52-6.583,0.564
		l-0.105-0.042l-0.017,0.111c-0.115,0.769-0.403,1.449-0.859,2.021c-0.592,0.745-1.414,1.257-2.377,1.481l-0.181,0.042l1.482,1.177
		c0.539,0.43,0.629,1.219,0.201,1.759l-2.472,3.108l2.99,2.377c0.442,0.352,0.594,0.961,0.369,1.48l-3.602,8.27
		c-0.049,0.185-0.127,0.345-0.238,0.485c-0.43,0.538-1.219,0.629-1.759,0.2l-0.006-0.005l0.001,0.002L188.405,156.365z
		 M191.237,155.419l17.112,13.604l2.652-6.09l-14.429-11.472L191.237,155.419z M202.327,152.836l6.036,4.798l1.692-2.127
		l-6.037-4.799L202.327,152.836z M211.425,147.588c-0.762-0.606-1.875-0.479-2.481,0.282c-0.606,0.764-0.479,1.877,0.283,2.483
		c0.763,0.605,1.876,0.479,2.483-0.284C212.315,149.307,212.187,148.195,211.425,147.588z"/>
	<path style="fill:#FF4500;" d="M215.554,134.933c-0.478-0.379-0.611-1.046-0.315-1.582l5.518-10.012
		c0.162-0.293,0.427-0.505,0.748-0.599c0.321-0.093,0.659-0.055,0.952,0.106c0.063,0.035,0.121,0.074,0.176,0.118
		c0.479,0.379,0.61,1.044,0.316,1.58l-5.518,10.013c-0.162,0.292-0.427,0.505-0.748,0.598c-0.321,0.094-0.659,0.056-0.951-0.106
		C215.667,135.015,215.608,134.976,215.554,134.933z"/>
	<path style="fill:#FF4500;" d="M212.145,141.272c-0.48-0.381-0.61-1.071-0.304-1.604l1.449-2.513
		c0.167-0.29,0.437-0.497,0.759-0.584c0.323-0.087,0.66-0.042,0.95,0.125c0.057,0.033,0.11,0.068,0.159,0.106
		c0.48,0.382,0.607,1.07,0.3,1.603l-1.449,2.513c-0.166,0.291-0.436,0.497-0.759,0.583c-0.323,0.087-0.66,0.043-0.95-0.124
		C212.245,141.345,212.194,141.31,212.145,141.272z"/>
</g>
<g>
	<path style="fill:#FF4500;" d="M204.671,181.72c3.279-0.915,6.805,1.042,7.707,4.273l2.151,7.409
		c1.053,3.44,0.866,6.363-0.572,8.916l-23.863,42.346c-0.752,1.334-1.979,2.298-3.455,2.708c-1.478,0.411-3.026,0.225-4.361-0.528
		l-9.134-5.146c-1.335-0.753-2.298-1.979-2.71-3.455c-0.409-1.478-0.223-3.025,0.532-4.36l20.978-37.152
		c1.576-2.746,5.081-3.722,7.818-2.181l4.895,2.761c1.335,0.751,2.297,1.979,2.71,3.455c0.411,1.476,0.225,3.024-0.528,4.359
		l-16.466,29.221c-0.363,0.645-1.181,0.873-1.826,0.51c-0.646-0.364-0.873-1.181-0.511-1.826l16.467-29.22
		c0.4-0.712,0.501-1.536,0.281-2.324c-0.22-0.785-0.732-1.438-1.443-1.839l-4.894-2.761c-1.458-0.821-3.331-0.296-4.174,1.172
		L173.3,235.202c-0.4,0.709-0.502,1.534-0.282,2.321c0.218,0.785,0.73,1.438,1.442,1.837l9.135,5.148
		c1.421,0.803,3.363,0.261,4.163-1.16l23.863-42.346c1.059-1.88,1.17-4.114,0.34-6.836l-2.162-7.439
		c-0.507-1.813-2.559-2.942-4.397-2.43l-7.137,2.054c-2.847,0.73-4.592,1.939-5.702,3.909l-19.384,34.396
		c-0.363,0.645-1.181,0.873-1.825,0.51c-0.646-0.364-0.874-1.181-0.51-1.825l19.384-34.396c1.476-2.623,3.799-4.276,7.331-5.181
		L204.671,181.72z"/>
</g>
<g>
	<path style="fill:#FF4500;" d="M298.145,287.813c-0.409,0.617-0.242,1.448,0.375,1.859l12.314,8.201
		c2.345,1.563,5.524,0.924,7.086-1.422l18.038-27.084c1.562-2.346,0.926-5.523-1.42-7.086l-39.535-26.33
		c-2.346-1.563-5.524-0.924-7.086,1.421l-18.039,27.085c-1.562,2.346-0.924,5.523,1.42,7.084l22.219,14.798
		c0.616,0.41,1.447,0.245,1.858-0.371c0.411-0.617,0.243-1.45-0.373-1.86l-22.218-14.797c-1.114-0.741-1.416-2.252-0.674-3.367
		l18.038-27.085c0.742-1.115,2.254-1.419,3.367-0.677l39.537,26.332c1.114,0.742,1.416,2.252,0.673,3.367l-18.037,27.085
		c-0.742,1.116-2.254,1.419-3.367,0.677l-12.315-8.202C299.389,287.03,298.555,287.196,298.145,287.813z"/>
	<path style="fill:#FF4500;" d="M300.614,285.949l10.85,7.226c0.617,0.409,1.448,0.244,1.859-0.372l17.496-26.271
		c0.41-0.616,0.244-1.448-0.373-1.858l-10.851-7.228c-0.616-0.408-1.448-0.242-1.858,0.373l-17.496,26.271
		C299.832,284.705,299.998,285.538,300.614,285.949z M303.217,284.461l16.01-24.041l8.619,5.74l-16.011,24.04L303.217,284.461z"/>
	<path style="fill:#FF4500;" d="M307.791,257.941c0.616,0.412,1.447,0.245,1.859-0.371l0.757-1.137
		c0.411-0.617,0.243-1.449-0.373-1.859l-2.374-1.583c-0.617-0.41-1.449-0.243-1.86,0.372l-0.757,1.139
		c-0.41,0.615-0.244,1.449,0.373,1.858L307.791,257.941z"/>
	<path style="fill:#FF4500;" d="M301.033,268.09c0.615,0.41,1.447,0.244,1.859-0.373l0.758-1.137
		c0.41-0.617,0.242-1.449-0.373-1.859l-2.375-1.582c-0.617-0.41-1.449-0.244-1.86,0.373l-0.757,1.137
		c-0.411,0.615-0.243,1.448,0.373,1.859L301.033,268.09z"/>
	<path style="fill:#FF4500;" d="M294.275,278.235c0.617,0.409,1.449,0.243,1.859-0.372l0.758-1.139
		c0.41-0.616,0.243-1.447-0.373-1.859l-2.376-1.58c-0.615-0.41-1.447-0.245-1.858,0.372l-0.757,1.138
		c-0.411,0.616-0.243,1.447,0.372,1.859L294.275,278.235z"/>
	<path style="fill:#FF4500;" d="M299.324,250.693l0.757-1.139c0.41-0.615,0.243-1.448-0.372-1.858l-2.377-1.582
		c-0.616-0.411-1.448-0.244-1.859,0.372l-0.757,1.137c-0.411,0.617-0.244,1.449,0.372,1.86l2.377,1.582
		C298.08,251.475,298.912,251.309,299.324,250.693z"/>
	<path style="fill:#FF4500;" d="M292.565,260.839l0.758-1.137c0.411-0.616,0.243-1.448-0.372-1.858l-2.377-1.584
		c-0.616-0.41-1.447-0.243-1.858,0.373l-0.759,1.139c-0.41,0.615-0.242,1.448,0.373,1.857l2.377,1.583
		C291.322,261.621,292.154,261.457,292.565,260.839z"/>
	<path style="fill:#FF4500;" d="M285.809,270.984l0.758-1.137c0.41-0.615,0.243-1.448-0.373-1.859l-2.377-1.581
		c-0.615-0.412-1.447-0.245-1.857,0.372l-0.758,1.137c-0.412,0.616-0.244,1.449,0.372,1.859l2.376,1.582
		C284.566,271.769,285.398,271.602,285.809,270.984z"/>
</g>
<path style="fill:#FF4500;" d="M260.15,269.949l-16.168,10.94c-0.317,0.216-0.528,0.553-0.578,0.935
	c-0.051,0.38,0.065,0.763,0.315,1.053c0.121,0.14,12.15,14.09,13.713,20.145c0.516,1.995-0.425,8.385-1.14,11.909
	c0,0.006-0.001,0.009-0.002,0.012c-0.116,0.603,0.193,1.209,0.75,1.469c0.116,0.055,11.735,5.478,15.35,7.407
	c4.541,2.43,17.646,10.219,17.778,10.298c0.446,0.266,1.004,0.249,1.434-0.04c0.301-0.203,0.501-0.514,0.566-0.858
	c0.029-0.148,0.033-0.302,0.011-0.455c-0.023-0.146-2.237-14.696-2.753-19.645c-0.446-4.279-1.151-17.698-1.159-17.832
	c-0.032-0.636-0.507-1.158-1.134-1.255c-3.464-0.533-9.561-1.811-11.177-2.967c-0.941-0.672-2.605-2.247-5.185-5.923
	c-0.425-0.606-1.263-0.753-1.866-0.327c-0.607,0.424-0.753,1.26-0.329,1.868c2.246,3.198,4.205,5.408,5.821,6.565
	c2.213,1.584,8.604,2.805,11.25,3.259c0.179,3.313,0.729,13.215,1.112,16.89c0.388,3.716,1.671,12.457,2.347,16.976
	c-4.046-2.394-12.021-7.082-15.454-8.916c-3.103-1.658-11.65-5.681-14.532-7.03c0.496-2.669,1.61-9.35,0.908-12.073
	c-1.455-5.634-10.306-16.508-13.307-20.08l13.748-9.302c1.068,1.818,3.135,5.328,4.904,8.325l-6.401,4.331
	c-0.613,0.415-0.774,1.248-0.358,1.862l10.614,15.688c-1.799,1.953-2.098,4.956-0.548,7.247c1.81,2.672,5.456,3.376,8.131,1.568
	c1.338-0.905,2.18-2.27,2.466-3.741c0.282-1.473,0.006-3.053-0.897-4.392c-0.716-1.056-1.728-1.833-2.926-2.247
	c-0.699-0.243-1.463,0.128-1.704,0.828c-0.249,0.695,0.128,1.464,0.827,1.704c0.647,0.224,1.194,0.646,1.583,1.219
	c0.979,1.449,0.599,3.427-0.85,4.408c-1.451,0.982-3.43,0.599-4.409-0.85c-0.981-1.449-0.6-3.428,0.851-4.409
	c0.612-0.414,0.773-1.248,0.358-1.861c-0.001-0.001-0.003-0.001-0.004-0.003c0.001-0.001,0.001-0.001,0-0.003l-10.522-15.55
	l6.338-4.288c0.587-0.397,0.763-1.185,0.401-1.792c-2.592-4.38-6.266-10.636-6.266-10.636c-0.189-0.319-0.499-0.546-0.86-0.628
	C260.837,269.67,260.458,269.741,260.15,269.949z"/>
</svg>
