<?xml version="1.0" encoding="UTF-8"?>
<svg xmlns="http://www.w3.org/2000/svg" xmlns:xlink="http://www.w3.org/1999/xlink" width="120px" height="12px" viewBox="0 0 121 12" version="1.1">
<g id="surface1">
<path style=" stroke:none;fill-rule:nonzero;fill:rgb(96.470588%,54.509804%,11.764706%);fill-opacity:1;" d="M 4.128906 10.667969 C 3.734375 9.828125 3.34375 8.953125 2.960938 8.046875 C 2.574219 7.136719 2.210938 6.242188 1.863281 5.351562 C 1.515625 4.464844 1.195312 3.613281 0.894531 2.804688 C 0.605469 1.992188 0.355469 1.269531 0.144531 0.632812 L 2.628906 0.632812 C 2.820312 1.210938 3.027344 1.839844 3.25 2.515625 C 3.480469 3.179688 3.710938 3.847656 3.941406 4.511719 C 4.183594 5.179688 4.414062 5.816406 4.636719 6.421875 C 4.855469 7.03125 5.0625 7.558594 5.257812 8.003906 C 5.441406 7.558594 5.640625 7.03125 5.863281 6.421875 C 6.09375 5.816406 6.324219 5.179688 6.554688 4.511719 C 6.796875 3.847656 7.027344 3.179688 7.25 2.515625 C 7.480469 1.839844 7.691406 1.210938 7.886719 0.632812 L 10.28125 0.632812 C 10.0625 1.269531 9.804688 1.992188 9.515625 2.804688 C 9.226562 3.613281 8.910156 4.464844 8.5625 5.351562 C 8.21875 6.242188 7.851562 7.136719 7.464844 8.046875 C 7.082031 8.953125 6.691406 9.828125 6.296875 10.667969 Z M 11.710938 10.667969 L 11.710938 0.632812 L 18.472656 0.632812 L 18.472656 2.527344 L 13.964844 2.527344 L 13.964844 4.496094 L 17.964844 4.496094 L 17.964844 6.351562 L 13.964844 6.351562 L 13.964844 8.769531 L 18.804688 8.769531 L 18.804688 10.667969 Z M 27.320312 10.667969 C 26.675781 9.519531 25.976562 8.382812 25.226562 7.261719 C 24.476562 6.144531 23.675781 5.085938 22.828125 4.09375 L 22.828125 10.667969 L 20.605469 10.667969 L 20.605469 0.632812 L 22.441406 0.632812 C 22.757812 0.949219 23.109375 1.339844 23.492188 1.804688 C 23.878906 2.269531 24.269531 2.765625 24.664062 3.296875 C 25.066406 3.816406 25.46875 4.363281 25.863281 4.933594 C 26.257812 5.492188 26.628906 6.03125 26.972656 6.554688 L 26.972656 0.632812 L 29.210938 0.632812 L 29.210938 10.667969 Z M 33.910156 8.828125 C 34.015625 8.835938 34.136719 8.847656 34.269531 8.855469 C 34.414062 8.855469 34.582031 8.855469 34.777344 8.855469 C 35.902344 8.855469 36.734375 8.570312 37.273438 8.003906 C 37.824219 7.433594 38.097656 6.644531 38.097656 5.640625 C 38.097656 4.589844 37.835938 3.792969 37.316406 3.253906 C 36.796875 2.710938 35.972656 2.441406 34.847656 2.441406 C 34.695312 2.441406 34.535156 2.445312 34.371094 2.457031 C 34.207031 2.457031 34.054688 2.464844 33.910156 2.484375 Z M 40.421875 5.640625 C 40.421875 6.511719 40.289062 7.269531 40.019531 7.914062 C 39.75 8.5625 39.363281 9.097656 38.863281 9.523438 C 38.371094 9.949219 37.769531 10.265625 37.058594 10.476562 C 36.34375 10.691406 35.546875 10.796875 34.660156 10.796875 C 34.257812 10.796875 33.785156 10.777344 33.246094 10.738281 C 32.707031 10.710938 32.175781 10.640625 31.65625 10.535156 L 31.65625 0.761719 C 32.175781 0.664062 32.714844 0.601562 33.273438 0.574219 C 33.84375 0.535156 34.328125 0.515625 34.734375 0.515625 C 35.589844 0.515625 36.363281 0.613281 37.058594 0.804688 C 37.761719 1 38.363281 1.300781 38.863281 1.71875 C 39.363281 2.132812 39.75 2.664062 40.019531 3.308594 C 40.289062 3.957031 40.421875 4.734375 40.421875 5.640625 Z M 44.332031 5.640625 C 44.332031 6.132812 44.390625 6.578125 44.503906 6.972656 C 44.628906 7.371094 44.804688 7.710938 45.023438 8.003906 C 45.253906 8.28125 45.535156 8.5 45.863281 8.652344 C 46.1875 8.808594 46.566406 8.886719 46.988281 8.886719 C 47.402344 8.886719 47.773438 8.808594 48.101562 8.652344 C 48.4375 8.5 48.714844 8.28125 48.9375 8.003906 C 49.167969 7.710938 49.34375 7.371094 49.457031 6.972656 C 49.582031 6.578125 49.644531 6.132812 49.644531 5.640625 C 49.644531 5.148438 49.582031 4.707031 49.457031 4.308594 C 49.34375 3.902344 49.167969 3.5625 48.9375 3.28125 C 48.714844 2.992188 48.4375 2.769531 48.101562 2.617188 C 47.773438 2.460938 47.402344 2.382812 46.988281 2.382812 C 46.566406 2.382812 46.1875 2.464844 45.863281 2.628906 C 45.535156 2.785156 45.253906 3.007812 45.023438 3.296875 C 44.804688 3.574219 44.628906 3.917969 44.503906 4.324219 C 44.390625 4.71875 44.332031 5.160156 44.332031 5.640625 Z M 51.96875 5.640625 C 51.96875 6.5 51.839844 7.257812 51.582031 7.914062 C 51.332031 8.5625 50.984375 9.109375 50.539062 9.550781 C 50.097656 9.984375 49.570312 10.3125 48.953125 10.535156 C 48.347656 10.757812 47.691406 10.871094 46.988281 10.871094 C 46.304688 10.871094 45.660156 10.757812 45.054688 10.535156 C 44.445312 10.3125 43.917969 9.984375 43.464844 9.550781 C 43.011719 9.109375 42.65625 8.5625 42.394531 7.914062 C 42.136719 7.257812 42.007812 6.5 42.007812 5.640625 C 42.007812 4.78125 42.140625 4.03125 42.410156 3.382812 C 42.679688 2.726562 43.042969 2.175781 43.492188 1.730469 C 43.957031 1.289062 44.484375 0.953125 45.082031 0.734375 C 45.6875 0.511719 46.324219 0.398438 46.988281 0.398438 C 47.671875 0.398438 48.316406 0.511719 48.921875 0.734375 C 49.53125 0.953125 50.058594 1.289062 50.511719 1.730469 C 50.964844 2.175781 51.320312 2.726562 51.582031 3.382812 C 51.839844 4.03125 51.96875 4.78125 51.96875 5.640625 Z M 56.914062 0.515625 C 58.417969 0.515625 59.566406 0.785156 60.367188 1.328125 C 61.167969 1.859375 61.566406 2.6875 61.566406 3.816406 C 61.566406 4.523438 61.402344 5.097656 61.074219 5.539062 C 60.757812 5.976562 60.292969 6.316406 59.6875 6.570312 C 59.890625 6.820312 60.101562 7.109375 60.324219 7.4375 C 60.546875 7.757812 60.761719 8.09375 60.972656 8.449219 C 61.195312 8.796875 61.40625 9.164062 61.609375 9.550781 C 61.8125 9.929688 62 10.300781 62.171875 10.667969 L 59.644531 10.667969 C 59.460938 10.339844 59.273438 10.003906 59.082031 9.667969 C 58.898438 9.328125 58.707031 9 58.503906 8.683594 C 58.3125 8.363281 58.117188 8.066406 57.925781 7.785156 C 57.734375 7.496094 57.542969 7.234375 57.347656 7.003906 L 56.238281 7.003906 L 56.238281 10.667969 L 53.984375 10.667969 L 53.984375 0.777344 C 54.476562 0.679688 54.980469 0.613281 55.5 0.574219 C 56.03125 0.535156 56.5 0.515625 56.914062 0.515625 Z M 57.046875 2.441406 C 56.882812 2.441406 56.734375 2.445312 56.597656 2.457031 C 56.472656 2.464844 56.351562 2.476562 56.238281 2.484375 L 56.238281 5.207031 L 56.871094 5.207031 C 57.71875 5.207031 58.324219 5.101562 58.691406 4.890625 C 59.058594 4.675781 59.242188 4.3125 59.242188 3.800781 C 59.242188 3.308594 59.054688 2.960938 58.675781 2.761719 C 58.3125 2.546875 57.765625 2.441406 57.046875 2.441406 Z M 71.621094 10.882812 C 70.917969 10.882812 70.277344 10.769531 69.699219 10.535156 C 69.121094 10.304688 68.625 9.964844 68.210938 9.523438 C 67.796875 9.078125 67.476562 8.53125 67.242188 7.886719 C 67.023438 7.230469 66.910156 6.480469 66.910156 5.640625 C 66.910156 4.800781 67.035156 4.058594 67.285156 3.410156 C 67.546875 2.753906 67.894531 2.203125 68.328125 1.761719 C 68.761719 1.316406 69.265625 0.980469 69.84375 0.746094 C 70.421875 0.515625 71.035156 0.398438 71.691406 0.398438 C 72.105469 0.398438 72.476562 0.429688 72.804688 0.488281 C 73.140625 0.542969 73.429688 0.613281 73.671875 0.6875 C 73.921875 0.765625 74.121094 0.84375 74.277344 0.921875 C 74.429688 1 74.535156 1.054688 74.59375 1.09375 L 74.191406 2.253906 C 74.101562 2.195312 73.976562 2.132812 73.8125 2.066406 C 73.652344 1.996094 73.464844 1.929688 73.25 1.863281 C 73.050781 1.792969 72.824219 1.742188 72.574219 1.703125 C 72.332031 1.65625 72.085938 1.628906 71.835938 1.628906 C 71.304688 1.628906 70.828125 1.722656 70.40625 1.90625 C 69.984375 2.089844 69.621094 2.355469 69.324219 2.703125 C 69.023438 3.050781 68.792969 3.472656 68.628906 3.976562 C 68.476562 4.46875 68.398438 5.023438 68.398438 5.640625 C 68.398438 6.242188 68.464844 6.785156 68.601562 7.277344 C 68.746094 7.769531 68.957031 8.195312 69.238281 8.550781 C 69.515625 8.898438 69.863281 9.171875 70.277344 9.363281 C 70.699219 9.554688 71.191406 9.652344 71.75 9.652344 C 72.394531 9.652344 72.929688 9.585938 73.351562 9.449219 C 73.777344 9.316406 74.09375 9.195312 74.304688 9.089844 L 74.667969 10.246094 C 74.597656 10.296875 74.480469 10.359375 74.304688 10.433594 C 74.132812 10.503906 73.914062 10.570312 73.65625 10.636719 C 73.394531 10.707031 73.09375 10.761719 72.746094 10.8125 C 72.398438 10.859375 72.023438 10.882812 71.621094 10.882812 Z M 76.40625 10.667969 L 76.40625 0.632812 L 82.515625 0.632812 L 82.515625 1.832031 L 77.808594 1.832031 L 77.808594 4.816406 L 81.996094 4.816406 L 81.996094 5.988281 L 77.808594 5.988281 L 77.808594 9.464844 L 82.875 9.464844 L 82.875 10.667969 Z M 91.652344 10.667969 C 91.441406 10.308594 91.195312 9.910156 90.914062 9.464844 C 90.644531 9.019531 90.351562 8.5625 90.035156 8.089844 C 89.714844 7.605469 89.382812 7.117188 89.039062 6.625 C 88.699219 6.132812 88.363281 5.660156 88.027344 5.207031 C 87.691406 4.742188 87.363281 4.308594 87.042969 3.902344 C 86.726562 3.5 86.433594 3.140625 86.164062 2.832031 L 86.164062 10.667969 L 84.792969 10.667969 L 84.792969 0.632812 L 85.902344 0.632812 C 86.355469 1.113281 86.835938 1.679688 87.347656 2.324219 C 87.867188 2.960938 88.378906 3.625 88.878906 4.308594 C 89.390625 4.984375 89.867188 5.652344 90.308594 6.308594 C 90.761719 6.964844 91.140625 7.546875 91.449219 8.058594 L 91.449219 0.632812 L 92.820312 0.632812 L 92.820312 10.667969 Z M 102.121094 0.632812 L 102.121094 1.847656 L 98.972656 1.847656 L 98.972656 10.667969 L 97.570312 10.667969 L 97.570312 1.847656 L 94.421875 1.847656 L 94.421875 0.632812 Z M 103.734375 10.667969 L 103.734375 0.632812 L 109.84375 0.632812 L 109.84375 1.832031 L 105.136719 1.832031 L 105.136719 4.816406 L 109.324219 4.816406 L 109.324219 5.988281 L 105.136719 5.988281 L 105.136719 9.464844 L 110.203125 9.464844 L 110.203125 10.667969 Z M 117.015625 6.46875 C 117.167969 6.660156 117.363281 6.917969 117.59375 7.234375 C 117.832031 7.542969 118.078125 7.890625 118.328125 8.277344 C 118.578125 8.652344 118.824219 9.050781 119.066406 9.464844 C 119.316406 9.878906 119.527344 10.28125 119.703125 10.667969 L 118.171875 10.667969 C 117.976562 10.300781 117.765625 9.929688 117.535156 9.550781 C 117.3125 9.175781 117.085938 8.816406 116.855469 8.480469 C 116.625 8.132812 116.394531 7.808594 116.164062 7.511719 C 115.941406 7.210938 115.738281 6.949219 115.558594 6.726562 C 115.433594 6.738281 115.300781 6.742188 115.167969 6.742188 C 115.042969 6.742188 114.910156 6.742188 114.777344 6.742188 L 113.519531 6.742188 L 113.519531 10.667969 L 112.121094 10.667969 L 112.121094 0.777344 C 112.515625 0.679688 112.953125 0.617188 113.433594 0.589844 C 113.925781 0.550781 114.371094 0.53125 114.777344 0.53125 C 116.183594 0.53125 117.25 0.796875 117.984375 1.328125 C 118.722656 1.859375 119.09375 2.648438 119.09375 3.703125 C 119.09375 4.367188 118.917969 4.9375 118.5625 5.410156 C 118.214844 5.882812 117.699219 6.234375 117.015625 6.46875 Z M 114.894531 1.761719 C 114.296875 1.761719 113.839844 1.773438 113.519531 1.804688 L 113.519531 5.582031 L 114.515625 5.582031 C 115 5.582031 115.433594 5.558594 115.816406 5.511719 C 116.203125 5.464844 116.523438 5.371094 116.785156 5.234375 C 117.054688 5.101562 117.261719 4.914062 117.40625 4.671875 C 117.550781 4.421875 117.621094 4.09375 117.621094 3.6875 C 117.621094 3.308594 117.550781 2.996094 117.40625 2.746094 C 117.261719 2.496094 117.0625 2.296875 116.8125 2.152344 C 116.574219 2.007812 116.285156 1.90625 115.945312 1.847656 C 115.621094 1.789062 115.269531 1.761719 114.894531 1.761719 Z M 114.894531 1.761719 "/>
</g>
</svg>
